<svg width="117" height="53" viewBox="0 0 117 53" fill="none" xmlns="http://www.w3.org/2000/svg">
<path d="M78.0417 15.7496V9.005C78.0417 6.86904 78.0417 5.80106 78.7274 5.20325C79.4132 4.60543 80.4712 4.75108 82.5872 5.04237L104.943 8.11996C107.413 8.45994 108.648 8.62992 109.386 9.47723C110.125 10.3245 110.125 11.571 110.125 14.0639V38.936C110.125 41.4289 110.125 42.6754 109.386 43.5227C108.648 44.37 107.413 44.54 104.943 44.88L82.5872 47.9576C80.4712 48.2488 79.4132 48.3945 78.7274 47.7967C78.0417 47.1989 78.0417 46.1309 78.0417 43.9949V37.6873" stroke="#2C27D3" stroke-width="2"/>
<path d="M98.6667 26.5L99.4361 25.8613L99.9664 26.5L99.4361 27.1388L98.6667 26.5ZM71.1667 27.5C70.6144 27.5 70.1667 27.0523 70.1667 26.5C70.1667 25.9478 70.6144 25.5 71.1667 25.5V27.5ZM90.2694 14.8196L99.4361 25.8613L97.8973 27.1388L88.7306 16.0971L90.2694 14.8196ZM99.4361 27.1388L90.2694 38.1805L88.7306 36.903L97.8973 25.8613L99.4361 27.1388ZM98.6667 27.5H71.1667V25.5H98.6667V27.5Z" fill="#2C27D3"/>
<path d="M1.99751 37V18.8182H4.74077V34.6385H12.9794V37H1.99751ZM21.6397 37.2752C20.3613 37.2752 19.2457 36.9822 18.2928 36.3963C17.3399 35.8104 16.6001 34.9906 16.0733 33.9371C15.5466 32.8836 15.2832 31.6526 15.2832 30.244C15.2832 28.8294 15.5466 27.5924 16.0733 26.533C16.6001 25.4736 17.3399 24.6509 18.2928 24.065C19.2457 23.479 20.3613 23.1861 21.6397 23.1861C22.9181 23.1861 24.0338 23.479 24.9867 24.065C25.9396 24.6509 26.6794 25.4736 27.2061 26.533C27.7329 27.5924 27.9963 28.8294 27.9963 30.244C27.9963 31.6526 27.7329 32.8836 27.2061 33.9371C26.6794 34.9906 25.9396 35.8104 24.9867 36.3963C24.0338 36.9822 22.9181 37.2752 21.6397 37.2752ZM21.6486 35.0469C22.4772 35.0469 23.1638 34.8279 23.7083 34.3899C24.2528 33.9519 24.6552 33.369 24.9157 32.641C25.182 31.913 25.3152 31.111 25.3152 30.2351C25.3152 29.3651 25.182 28.5661 24.9157 27.8381C24.6552 27.1042 24.2528 26.5153 23.7083 26.0714C23.1638 25.6275 22.4772 25.4055 21.6486 25.4055C20.8141 25.4055 20.1216 25.6275 19.5712 26.0714C19.0267 26.5153 18.6213 27.1042 18.3549 27.8381C18.0945 28.5661 17.9643 29.3651 17.9643 30.2351C17.9643 31.111 18.0945 31.913 18.3549 32.641C18.6213 33.369 19.0267 33.9519 19.5712 34.3899C20.1216 34.8279 20.8141 35.0469 21.6486 35.0469ZM36.6766 42.3977C35.5935 42.3977 34.6613 42.2557 33.8801 41.9716C33.1047 41.6875 32.4714 41.3117 31.9802 40.8441C31.489 40.3765 31.122 39.8646 30.8794 39.3082L33.161 38.3672C33.3208 38.6276 33.5338 38.9028 33.8002 39.1928C34.0724 39.4888 34.4394 39.7403 34.901 39.9474C35.3686 40.1546 35.9693 40.2582 36.7032 40.2582C37.7094 40.2582 38.5409 40.0125 39.1979 39.5213C39.8548 39.036 40.1833 38.2607 40.1833 37.1953V34.5142H40.0146C39.8548 34.8042 39.624 35.1268 39.3222 35.4819C39.0262 35.837 38.6179 36.1448 38.097 36.4052C37.5762 36.6656 36.8985 36.7958 36.064 36.7958C34.9868 36.7958 34.0162 36.5443 33.1521 36.0412C32.2939 35.5322 31.6133 34.7835 31.1102 33.7951C30.613 32.8008 30.3644 31.5786 30.3644 30.1286C30.3644 28.6785 30.6101 27.4356 31.1013 26.3999C31.5985 25.3641 32.2791 24.571 33.1432 24.0206C34.0073 23.4643 34.9868 23.1861 36.0818 23.1861C36.9281 23.1861 37.6117 23.3281 38.1325 23.6122C38.6534 23.8904 39.0588 24.2159 39.3488 24.5888C39.6447 24.9616 39.8726 25.2901 40.0324 25.5742H40.2277V23.3636H42.8289V37.3018C42.8289 38.4737 42.5567 39.4355 42.0122 40.1871C41.4677 40.9388 40.7308 41.4951 39.8016 41.8562C38.8783 42.2172 37.8366 42.3977 36.6766 42.3977ZM36.6499 34.5941C37.4134 34.5941 38.0586 34.4165 38.5853 34.0614C39.118 33.7004 39.5204 33.1855 39.7927 32.5167C40.0709 31.842 40.21 31.0341 40.21 30.093C40.21 29.1757 40.0738 28.3678 39.8016 27.6694C39.5293 26.971 39.1298 26.4265 38.6031 26.0359C38.0763 25.6393 37.4253 25.4411 36.6499 25.4411C35.8509 25.4411 35.1851 25.6482 34.6524 26.0625C34.1198 26.4709 33.7173 27.0272 33.445 27.7315C33.1787 28.4358 33.0455 29.223 33.0455 30.093C33.0455 30.9867 33.1817 31.771 33.4539 32.4457C33.7262 33.1204 34.1286 33.6471 34.6613 34.0259C35.1999 34.4047 35.8628 34.5941 36.6499 34.5941ZM46.3889 37V23.3636H49.0434V37H46.3889ZM47.7295 21.2596C47.2678 21.2596 46.8713 21.1057 46.5399 20.7979C46.2143 20.4843 46.0516 20.1114 46.0516 19.6793C46.0516 19.2414 46.2143 18.8685 46.5399 18.5607C46.8713 18.247 47.2678 18.0902 47.7295 18.0902C48.1911 18.0902 48.5847 18.247 48.9102 18.5607C49.2417 18.8685 49.4074 19.2414 49.4074 19.6793C49.4074 20.1114 49.2417 20.4843 48.9102 20.7979C48.5847 21.1057 48.1911 21.2596 47.7295 21.2596ZM55.269 28.9034V37H52.6145V23.3636H55.1625V25.5831H55.3311C55.6448 24.861 56.1361 24.281 56.8049 23.843C57.4796 23.4051 58.3289 23.1861 59.3528 23.1861C60.282 23.1861 61.0958 23.3814 61.7942 23.772C62.4926 24.1567 63.0342 24.7308 63.4189 25.4943C63.8036 26.2578 63.9959 27.2018 63.9959 28.3263V37H61.3414V28.646C61.3414 27.6576 61.084 26.8852 60.5691 26.3288C60.0542 25.7666 59.3469 25.4854 58.4473 25.4854C57.8317 25.4854 57.2843 25.6186 56.8049 25.8849C56.3314 26.1513 55.9556 26.5419 55.6774 27.0568C55.4051 27.5658 55.269 28.1813 55.269 28.9034Z" fill="#2C27D3"/>
</svg>
