<svg width="111" height="64" viewBox="0 0 111 64" fill="none" xmlns="http://www.w3.org/2000/svg">
<path d="M57.6667 10.6666H64.1051C64.8551 10.6666 65.23 10.6666 65.5013 10.8784C65.7726 11.0902 65.8635 11.454 66.0454 12.1816L67.5759 18.3034C67.9396 19.7586 68.1215 20.4861 68.6641 20.9097C69.2066 21.3333 69.9565 21.3333 71.4564 21.3333H73.6667" stroke="#2C27D3" stroke-width="2" stroke-linecap="round"/>
<path d="M95 45.3334H65.7749C64.5086 45.3334 63.8755 45.3334 63.5762 44.9181C63.2769 44.5028 63.4771 43.9022 63.8775 42.7009L64.755 40.0685C65.195 38.7484 65.415 38.0884 65.9388 37.7109C66.4625 37.3334 67.1583 37.3334 68.5497 37.3334H84.3333" stroke="#2C27D3" stroke-width="2" stroke-linecap="round" stroke-linejoin="round"/>
<path d="M89.8612 37.3334H71.7218C70.1035 37.3334 69.2943 37.3334 68.7348 36.8594C68.1753 36.3855 68.0423 35.5873 67.7763 33.991L66.2489 24.8266C65.9786 23.205 65.8435 22.3942 66.2928 21.8638C66.7422 21.3334 67.5641 21.3334 69.208 21.3334H97.0973C98.5476 21.3334 99.2728 21.3334 99.5659 21.8076C99.8591 22.2819 99.5347 22.9305 98.8861 24.2278L93.4389 35.1222C92.901 36.1981 92.632 36.736 92.1487 37.0347C91.6654 37.3334 91.064 37.3334 89.8612 37.3334Z" stroke="#2C27D3" stroke-width="2" stroke-linecap="round"/>
<circle cx="92.3333" cy="53.3333" r="2.66667" fill="#2C27D3"/>
<circle cx="71" cy="53.3333" r="2.66667" fill="#2C27D3"/>
<path d="M17.0987 29.7308H14.3288C14.2223 29.139 14.024 28.6181 13.734 28.1683C13.444 27.7185 13.0889 27.3368 12.6687 27.0231C12.2485 26.7094 11.7779 26.4727 11.2571 26.3129C10.7422 26.1531 10.1947 26.0732 9.6147 26.0732C8.56712 26.0732 7.62902 26.3365 6.80043 26.8633C5.97775 27.39 5.3267 28.1624 4.8473 29.1804C4.37382 30.1984 4.13707 31.4413 4.13707 32.9091C4.13707 34.3887 4.37382 35.6375 4.8473 36.6555C5.3267 37.6735 5.98071 38.4429 6.8093 38.9638C7.6379 39.4846 8.57008 39.745 9.60582 39.745C10.1799 39.745 10.7244 39.6681 11.2393 39.5142C11.7602 39.3544 12.2307 39.1206 12.6509 38.8129C13.0711 38.5051 13.4263 38.1293 13.7163 37.6854C14.0122 37.2356 14.2164 36.7206 14.3288 36.1406L17.0987 36.1495C16.9508 37.0432 16.6637 37.8659 16.2376 38.6175C15.8174 39.3633 15.2758 40.0084 14.6129 40.5529C13.956 41.0915 13.2043 41.5088 12.358 41.8047C11.5116 42.1006 10.5883 42.2486 9.58807 42.2486C8.01373 42.2486 6.61103 41.8757 5.37997 41.13C4.14891 40.3783 3.17827 39.3041 2.46804 37.9073C1.76373 36.5105 1.41158 34.8445 1.41158 32.9091C1.41158 30.9678 1.76669 29.3017 2.47692 27.9109C3.18714 26.5141 4.15779 25.4428 5.38885 24.6971C6.61991 23.9454 8.01965 23.5696 9.58807 23.5696C10.5528 23.5696 11.4524 23.7087 12.2869 23.9869C13.1274 24.2591 13.882 24.6616 14.5508 25.1942C15.2196 25.721 15.773 26.3661 16.2109 27.1296C16.6489 27.8872 16.9448 28.7543 17.0987 29.7308ZM24.1366 42.3018C23.2725 42.3018 22.4913 42.142 21.7929 41.8224C21.0945 41.4969 20.5411 41.0264 20.1327 40.4109C19.7303 39.7953 19.529 39.0407 19.529 38.147C19.529 37.3776 19.677 36.7443 19.9729 36.2472C20.2689 35.75 20.6684 35.3564 21.1714 35.0664C21.6745 34.7764 22.2368 34.5574 22.8582 34.4094C23.4797 34.2615 24.113 34.149 24.7581 34.0721C25.5748 33.9774 26.2377 33.9004 26.7467 33.8413C27.2557 33.7762 27.6256 33.6726 27.8564 33.5305C28.0873 33.3885 28.2027 33.1577 28.2027 32.8381V32.7759C28.2027 32.0006 27.9837 31.3999 27.5457 30.9737C27.1137 30.5476 26.4685 30.3345 25.6104 30.3345C24.7166 30.3345 24.0123 30.5328 23.4974 30.9293C22.9884 31.32 22.6363 31.755 22.441 32.2344L19.9463 31.6662C20.2422 30.8376 20.6743 30.1688 21.2425 29.6598C21.8166 29.1449 22.4765 28.772 23.2222 28.5412C23.968 28.3045 24.7522 28.1861 25.5748 28.1861C26.1193 28.1861 26.6964 28.2512 27.306 28.3814C27.9215 28.5057 28.4956 28.7365 29.0283 29.0739C29.5669 29.4112 30.0078 29.8936 30.3511 30.521C30.6944 31.1424 30.866 31.9503 30.866 32.9446V42H28.2737V40.1357H28.1672C27.9955 40.4789 27.7381 40.8163 27.3948 41.1477C27.0515 41.4792 26.6106 41.7544 26.072 41.9734C25.5334 42.1924 24.8883 42.3018 24.1366 42.3018ZM24.7137 40.1712C25.4476 40.1712 26.075 40.0262 26.5958 39.7362C27.1225 39.4461 27.522 39.0674 27.7943 38.5998C28.0725 38.1263 28.2116 37.6203 28.2116 37.0817V35.3239C28.1169 35.4186 27.9334 35.5073 27.6611 35.5902C27.3948 35.6671 27.09 35.7352 26.7467 35.7944C26.4034 35.8477 26.069 35.898 25.7435 35.9453C25.418 35.9867 25.1457 36.0223 24.9268 36.0518C24.4118 36.117 23.9413 36.2264 23.5152 36.3803C23.095 36.5342 22.7576 36.7562 22.5031 37.0462C22.2545 37.3303 22.1302 37.709 22.1302 38.1825C22.1302 38.8395 22.3729 39.3366 22.8582 39.674C23.3435 40.0054 23.962 40.1712 24.7137 40.1712ZM34.4016 42V28.3636H36.9673V30.5298H37.1094C37.358 29.7959 37.7959 29.2189 38.4233 28.7987C39.0566 28.3725 39.7727 28.1594 40.5717 28.1594C40.7375 28.1594 40.9328 28.1654 41.1577 28.1772C41.3885 28.189 41.569 28.2038 41.6992 28.2216V30.7607C41.5927 30.7311 41.4033 30.6985 41.131 30.663C40.8588 30.6216 40.5865 30.6009 40.3143 30.6009C39.6869 30.6009 39.1276 30.734 38.6364 31.0004C38.151 31.2608 37.7663 31.6248 37.4822 32.0923C37.1982 32.554 37.0561 33.0807 37.0561 33.6726V42H34.4016ZM51.1674 28.3636V30.4943H43.7189V28.3636H51.1674ZM45.7164 25.0966H48.3709V37.9961C48.3709 38.511 48.4479 38.8987 48.6017 39.1591C48.7556 39.4136 48.9539 39.5882 49.1966 39.6829C49.4451 39.7717 49.7144 39.8161 50.0044 39.8161C50.2175 39.8161 50.4039 39.8013 50.5637 39.7717C50.7235 39.7421 50.8478 39.7184 50.9366 39.7006L51.416 41.8935C51.2621 41.9527 51.0431 42.0118 50.7591 42.071C50.475 42.1361 50.1199 42.1716 49.6937 42.1776C48.9953 42.1894 48.3443 42.0651 47.7406 41.8047C47.1369 41.5443 46.6486 41.1418 46.2757 40.5973C45.9029 40.0528 45.7164 39.3692 45.7164 38.5465V25.0966Z" fill="#2C27D3"/>
</svg>
