<svg width="200" height="65" viewBox="0 0 200 65" fill="none" xmlns="http://www.w3.org/2000/svg">
<path d="M17.0987 28.7308H14.3288C14.2223 28.139 14.024 27.6181 13.734 27.1683C13.444 26.7185 13.0889 26.3368 12.6687 26.0231C12.2485 25.7094 11.7779 25.4727 11.2571 25.3129C10.7422 25.1531 10.1947 25.0732 9.6147 25.0732C8.56712 25.0732 7.62902 25.3365 6.80043 25.8633C5.97775 26.39 5.3267 27.1624 4.8473 28.1804C4.37382 29.1984 4.13707 30.4413 4.13707 31.9091C4.13707 33.3887 4.37382 34.6375 4.8473 35.6555C5.3267 36.6735 5.98071 37.4429 6.8093 37.9638C7.6379 38.4846 8.57008 38.745 9.60582 38.745C10.1799 38.745 10.7244 38.6681 11.2393 38.5142C11.7602 38.3544 12.2307 38.1206 12.6509 37.8129C13.0711 37.5051 13.4263 37.1293 13.7163 36.6854C14.0122 36.2356 14.2164 35.7206 14.3288 35.1406L17.0987 35.1495C16.9508 36.0432 16.6637 36.8659 16.2376 37.6175C15.8174 38.3633 15.2758 39.0084 14.6129 39.5529C13.956 40.0915 13.2043 40.5088 12.358 40.8047C11.5116 41.1006 10.5883 41.2486 9.58807 41.2486C8.01373 41.2486 6.61103 40.8757 5.37997 40.13C4.14891 39.3783 3.17827 38.3041 2.46804 36.9073C1.76373 35.5105 1.41158 33.8445 1.41158 31.9091C1.41158 29.9678 1.76669 28.3017 2.47692 26.9109C3.18714 25.5141 4.15779 24.4428 5.38885 23.6971C6.61991 22.9454 8.01965 22.5696 9.58807 22.5696C10.5528 22.5696 11.4524 22.7087 12.2869 22.9869C13.1274 23.2591 13.882 23.6616 14.5508 24.1942C15.2196 24.721 15.773 25.3661 16.2109 26.1296C16.6489 26.8872 16.9448 27.7543 17.0987 28.7308ZM25.9122 41.2752C24.6338 41.2752 23.5181 40.9822 22.5653 40.3963C21.6124 39.8104 20.8725 38.9906 20.3458 37.9371C19.819 36.8836 19.5557 35.6526 19.5557 34.244C19.5557 32.8294 19.819 31.5924 20.3458 30.533C20.8725 29.4736 21.6124 28.6509 22.5653 28.065C23.5181 27.479 24.6338 27.1861 25.9122 27.1861C27.1906 27.1861 28.3063 27.479 29.2591 28.065C30.212 28.6509 30.9519 29.4736 31.4786 30.533C32.0054 31.5924 32.2687 32.8294 32.2687 34.244C32.2687 35.6526 32.0054 36.8836 31.4786 37.9371C30.9519 38.9906 30.212 39.8104 29.2591 40.3963C28.3063 40.9822 27.1906 41.2752 25.9122 41.2752ZM25.9211 39.0469C26.7497 39.0469 27.4362 38.8279 27.9807 38.3899C28.5252 37.9519 28.9277 37.369 29.1881 36.641C29.4545 35.913 29.5876 35.111 29.5876 34.2351C29.5876 33.3651 29.4545 32.5661 29.1881 31.8381C28.9277 31.1042 28.5252 30.5153 27.9807 30.0714C27.4362 29.6275 26.7497 29.4055 25.9211 29.4055C25.0866 29.4055 24.3941 29.6275 23.8437 30.0714C23.2992 30.5153 22.8937 31.1042 22.6274 31.8381C22.367 32.5661 22.2368 33.3651 22.2368 34.2351C22.2368 35.111 22.367 35.913 22.6274 36.641C22.8937 37.369 23.2992 37.9519 23.8437 38.3899C24.3941 38.8279 25.0866 39.0469 25.9211 39.0469ZM37.8862 32.9034V41H35.2317V27.3636H37.7797V29.5831H37.9483C38.262 28.861 38.7533 28.281 39.4221 27.843C40.0968 27.4051 40.9461 27.1861 41.97 27.1861C42.8992 27.1861 43.713 27.3814 44.4114 27.772C45.1098 28.1567 45.6513 28.7308 46.036 29.4943C46.4208 30.2578 46.6131 31.2018 46.6131 32.3263V41H43.9586V32.646C43.9586 31.6576 43.7012 30.8852 43.1863 30.3288C42.6713 29.7666 41.9641 29.4854 41.0645 29.4854C40.4489 29.4854 39.9015 29.6186 39.4221 29.8849C38.9486 30.1513 38.5727 30.5419 38.2946 31.0568C38.0223 31.5658 37.8862 32.1813 37.8862 32.9034ZM56.5385 27.3636V29.4943H49.09V27.3636H56.5385ZM51.0875 24.0966H53.742V36.9961C53.742 37.511 53.819 37.8987 53.9728 38.1591C54.1267 38.4136 54.325 38.5882 54.5676 38.6829C54.8162 38.7717 55.0855 38.8161 55.3755 38.8161C55.5886 38.8161 55.775 38.8013 55.9348 38.7717C56.0946 38.7421 56.2189 38.7184 56.3077 38.7006L56.7871 40.8935C56.6332 40.9527 56.4142 41.0118 56.1301 41.071C55.8461 41.1361 55.4909 41.1716 55.0648 41.1776C54.3664 41.1894 53.7154 41.0651 53.1117 40.8047C52.508 40.5443 52.0197 40.1418 51.6468 39.5973C51.274 39.0528 51.0875 38.3692 51.0875 37.5465V24.0966ZM63.4433 41.3018C62.5792 41.3018 61.7979 41.142 61.0995 40.8224C60.4011 40.4969 59.8477 40.0264 59.4394 39.4109C59.0369 38.7953 58.8357 38.0407 58.8357 37.147C58.8357 36.3776 58.9836 35.7443 59.2796 35.2472C59.5755 34.75 59.975 34.3564 60.4781 34.0664C60.9811 33.7764 61.5434 33.5574 62.1649 33.4094C62.7863 33.2615 63.4196 33.149 64.0647 33.0721C64.8815 32.9774 65.5444 32.9004 66.0534 32.8413C66.5624 32.7762 66.9323 32.6726 67.1631 32.5305C67.3939 32.3885 67.5093 32.1577 67.5093 31.8381V31.7759C67.5093 31.0006 67.2903 30.3999 66.8524 29.9737C66.4203 29.5476 65.7752 29.3345 64.917 29.3345C64.0233 29.3345 63.319 29.5328 62.8041 29.9293C62.2951 30.32 61.9429 30.755 61.7476 31.2344L59.2529 30.6662C59.5489 29.8376 59.9809 29.1688 60.5491 28.6598C61.1232 28.1449 61.7831 27.772 62.5289 27.5412C63.2746 27.3045 64.0588 27.1861 64.8815 27.1861C65.426 27.1861 66.003 27.2512 66.6127 27.3814C67.2282 27.5057 67.8023 27.7365 68.335 28.0739C68.8735 28.4112 69.3145 28.8936 69.6578 29.521C70.001 30.1424 70.1727 30.9503 70.1727 31.9446V41H67.5803V39.1357H67.4738C67.3022 39.4789 67.0447 39.8163 66.7014 40.1477C66.3582 40.4792 65.9172 40.7544 65.3786 40.9734C64.8401 41.1924 64.1949 41.3018 63.4433 41.3018ZM64.0203 39.1712C64.7542 39.1712 65.3816 39.0262 65.9024 38.7362C66.4292 38.4461 66.8287 38.0674 67.1009 37.5998C67.3791 37.1263 67.5182 36.6203 67.5182 36.0817V34.3239C67.4235 34.4186 67.24 34.5073 66.9678 34.5902C66.7014 34.6671 66.3966 34.7352 66.0534 34.7944C65.7101 34.8477 65.3757 34.898 65.0502 34.9453C64.7246 34.9867 64.4524 35.0223 64.2334 35.0518C63.7185 35.117 63.248 35.2264 62.8218 35.3803C62.4016 35.5342 62.0642 35.7562 61.8097 36.0462C61.5612 36.3303 61.4369 36.709 61.4369 37.1825C61.4369 37.8395 61.6795 38.3366 62.1649 38.674C62.6502 39.0054 63.2687 39.1712 64.0203 39.1712ZM79.4522 41.2752C78.1324 41.2752 76.996 40.9763 76.0431 40.3786C75.0962 39.7749 74.3682 38.9433 73.8592 37.8839C73.3502 36.8245 73.0957 35.6112 73.0957 34.244C73.0957 32.859 73.3561 31.6368 73.877 30.5774C74.3978 29.5121 75.1317 28.6805 76.0787 28.0827C77.0256 27.485 78.1413 27.1861 79.4256 27.1861C80.4614 27.1861 81.3846 27.3784 82.1955 27.7631C83.0063 28.1419 83.6603 28.6746 84.1575 29.3612C84.6606 30.0477 84.9595 30.8497 85.0542 31.767H82.4707C82.3287 31.1278 82.0031 30.5774 81.4941 30.1158C80.9911 29.6541 80.3163 29.4233 79.47 29.4233C78.7302 29.4233 78.0821 29.6186 77.5257 30.0092C76.9753 30.3939 76.5462 30.9444 76.2385 31.6605C75.9307 32.3707 75.7768 33.2112 75.7768 34.1818C75.7768 35.1761 75.9277 36.0343 76.2296 36.7564C76.5314 37.4785 76.9576 38.0378 77.508 38.4343C78.0643 38.8308 78.7183 39.0291 79.47 39.0291C79.9731 39.0291 80.4288 38.9374 80.8372 38.7539C81.2515 38.5645 81.5977 38.2952 81.8759 37.946C82.16 37.5968 82.3583 37.1766 82.4707 36.6854H85.0542C84.9595 37.5672 84.6724 38.3544 84.193 39.0469C83.7136 39.7393 83.0714 40.2839 82.2665 40.6804C81.4675 41.0769 80.5294 41.2752 79.4522 41.2752ZM94.2583 27.3636V29.4943H86.8097V27.3636H94.2583ZM88.8073 24.0966H91.4617V36.9961C91.4617 37.511 91.5387 37.8987 91.6926 38.1591C91.8464 38.4136 92.0447 38.5882 92.2874 38.6829C92.536 38.7717 92.8052 38.8161 93.0953 38.8161C93.3083 38.8161 93.4948 38.8013 93.6546 38.7717C93.8144 38.7421 93.9387 38.7184 94.0274 38.7006L94.5068 40.8935C94.353 40.9527 94.134 41.0118 93.8499 41.071C93.5658 41.1361 93.2107 41.1716 92.7845 41.1776C92.0861 41.1894 91.4351 41.0651 90.8314 40.8047C90.2277 40.5443 89.7394 40.1418 89.3666 39.5973C88.9937 39.0528 88.8073 38.3692 88.8073 37.5465V24.0966ZM115.716 22.8182H118.468V34.7766C118.468 36.0491 118.169 37.1766 117.571 38.1591C116.974 39.1357 116.133 39.9051 115.05 40.4673C113.967 41.0237 112.698 41.3018 111.242 41.3018C109.792 41.3018 108.525 41.0237 107.442 40.4673C106.359 39.9051 105.518 39.1357 104.921 38.1591C104.323 37.1766 104.024 36.0491 104.024 34.7766V22.8182H106.767V34.5547C106.767 35.3774 106.948 36.1083 107.309 36.7475C107.676 37.3867 108.194 37.8898 108.862 38.2567C109.531 38.6178 110.324 38.7983 111.242 38.7983C112.165 38.7983 112.961 38.6178 113.63 38.2567C114.304 37.8898 114.819 37.3867 115.174 36.7475C115.535 36.1083 115.716 35.3774 115.716 34.5547V22.8182ZM132.462 30.6928L130.056 31.119C129.955 30.8112 129.796 30.5182 129.577 30.2401C129.363 29.9619 129.073 29.734 128.706 29.5565C128.34 29.3789 127.881 29.2901 127.33 29.2901C126.579 29.2901 125.951 29.4588 125.448 29.7962C124.945 30.1276 124.694 30.5567 124.694 31.0835C124.694 31.5392 124.862 31.9061 125.2 32.1843C125.537 32.4625 126.082 32.6903 126.833 32.8679L128.999 33.3651C130.254 33.6551 131.189 34.1019 131.805 34.7056C132.42 35.3093 132.728 36.0935 132.728 37.0582C132.728 37.875 132.491 38.603 132.018 39.2422C131.55 39.8755 130.896 40.3726 130.056 40.7337C129.221 41.0947 128.254 41.2752 127.153 41.2752C125.626 41.2752 124.38 40.9497 123.415 40.2987C122.451 39.6417 121.859 38.7095 121.64 37.5021L124.205 37.1115C124.365 37.7803 124.694 38.2863 125.191 38.6296C125.688 38.967 126.336 39.1357 127.135 39.1357C128.005 39.1357 128.701 38.9551 129.221 38.5941C129.742 38.2272 130.003 37.7803 130.003 37.2536C130.003 36.8274 129.843 36.4693 129.523 36.1793C129.21 35.8893 128.727 35.6703 128.076 35.5224L125.768 35.0163C124.495 34.7263 123.554 34.2647 122.945 33.6314C122.341 32.9981 122.039 32.1961 122.039 31.2255C122.039 30.4206 122.264 29.7163 122.714 29.1126C123.164 28.5089 123.785 28.0384 124.578 27.701C125.371 27.3577 126.28 27.1861 127.304 27.1861C128.778 27.1861 129.938 27.5057 130.784 28.1449C131.63 28.7782 132.19 29.6275 132.462 30.6928Z" fill="#2C27D3"/>
<rect x="145.833" y="16.25" width="43.3333" height="32.5" rx="2" stroke="#2C27D3"/>
<path d="M166.606 34.7611L145.833 24.375V46.75C145.833 47.8546 146.729 48.75 147.833 48.75H187.167C188.271 48.75 189.167 47.8546 189.167 46.75V24.375L168.394 34.7611C167.831 35.0426 167.169 35.0426 166.606 34.7611Z" fill="#2C27D3"/>
</svg>
