<?xml version="1.0" encoding="UTF-8"?>
<!DOCTYPE svg PUBLIC "-//W3C//DTD SVG 1.1//EN" "http://www.w3.org/Graphics/SVG/1.1/DTD/svg11.dtd">
<svg xmlns="http://www.w3.org/2000/svg" version="1.1" width="272px" height="185px" style="shape-rendering:geometricPrecision; text-rendering:geometricPrecision; image-rendering:optimizeQuality; fill-rule:evenodd; clip-rule:evenodd" xmlns:xlink="http://www.w3.org/1999/xlink">
<g><path style="opacity:0.718" fill="#c8d0c2" d="M 240.5,19.5 C 230.903,17.8081 221.236,17.3081 211.5,18C 206.376,19.346 206.709,20.1793 212.5,20.5C 216.1,20.3554 219.6,19.6887 223,18.5C 225.185,18.9212 227.351,19.4212 229.5,20C 227.292,20.1909 225.292,20.6909 223.5,21.5C 220.763,21.4013 218.096,21.7347 215.5,22.5C 210.799,22.9569 206.132,23.6236 201.5,24.5C 200.127,24.6567 198.793,24.49 197.5,24C 206.625,21.9448 206.625,20.7781 197.5,20.5C 193.981,20.6513 190.314,20.3179 186.5,19.5C 201.074,14.5763 216.074,13.4096 231.5,16C 234.865,16.5053 237.865,17.672 240.5,19.5 Z"/></g>
<g><path style="opacity:1" fill="#a4ab9d" d="M 240.5,19.5 C 244.429,20.4308 247.095,22.7641 248.5,26.5C 247.833,26.5 247.167,26.5 246.5,26.5C 246.027,25.0937 245.027,24.427 243.5,24.5C 237.121,22.4388 230.455,21.4388 223.5,21.5C 225.292,20.6909 227.292,20.1909 229.5,20C 227.351,19.4212 225.185,18.9212 223,18.5C 219.6,19.6887 216.1,20.3554 212.5,20.5C 206.709,20.1793 206.376,19.346 211.5,18C 221.236,17.3081 230.903,17.8081 240.5,19.5 Z"/></g>
<g><path style="opacity:1" fill="#55654d" d="M 223.5,21.5 C 230.455,21.4388 237.121,22.4388 243.5,24.5C 240.941,24.1984 238.607,24.5318 236.5,25.5C 234.833,25.5 233.167,25.5 231.5,25.5C 232.263,24.7321 233.263,24.2321 234.5,24C 230.925,22.2584 227.259,22.0918 223.5,23.5C 220.615,23.8064 217.948,23.4731 215.5,22.5C 218.096,21.7347 220.763,21.4013 223.5,21.5 Z"/></g>
<g><path style="opacity:1" fill="#567347" d="M 215.5,22.5 C 217.948,23.4731 220.615,23.8064 223.5,23.5C 216.664,24.7895 209.664,25.9561 202.5,27C 190.592,29.9692 178.925,33.4692 167.5,37.5C 165.007,37.8693 164.34,37.2027 165.5,35.5C 177.633,31.7853 189.633,28.1187 201.5,24.5C 206.132,23.6236 210.799,22.9569 215.5,22.5 Z"/></g>
<g><path style="opacity:1" fill="#9db590" d="M 197.5,20.5 C 206.625,20.7781 206.625,21.9448 197.5,24C 198.793,24.49 200.127,24.6567 201.5,24.5C 189.633,28.1187 177.633,31.7853 165.5,35.5C 163.565,36.1495 161.565,36.4828 159.5,36.5C 159.5,35.5 159.5,34.5 159.5,33.5C 164.759,33.6962 169.092,31.8628 172.5,28C 180.932,25.5545 189.265,23.0545 197.5,20.5 Z"/></g>
<g><path style="opacity:1" fill="#1d3815" d="M 231.5,25.5 C 233.167,25.5 234.833,25.5 236.5,25.5C 237.5,25.5 238.5,25.5 239.5,25.5C 239.5,26.8333 239.5,28.1667 239.5,29.5C 240.552,29.3505 241.552,29.5172 242.5,30C 240.038,31.2156 237.371,31.8823 234.5,32C 233.332,33.4056 233.665,34.5723 235.5,35.5C 234.975,36.1924 234.308,36.6924 233.5,37C 234.416,37.2784 235.082,37.7784 235.5,38.5C 234.167,38.8333 232.833,39.1667 231.5,39.5C 230.591,37.2386 230.258,35.072 230.5,33C 231.5,32.1667 232.5,31.3333 233.5,30.5C 232.398,29.8243 231.398,29.1577 230.5,28.5C 226.899,27.3482 222.566,27.3482 217.5,28.5C 218.5,27.8333 219.5,27.1667 220.5,26.5C 224.154,26.0578 227.821,25.7244 231.5,25.5 Z"/></g>
<g><path style="opacity:1" fill="#a5c497" d="M 231.5,25.5 C 227.821,25.7244 224.154,26.0578 220.5,26.5C 214.416,27.4502 208.416,28.7836 202.5,30.5C 196.053,31.7886 189.72,33.4552 183.5,35.5C 175.615,39.796 167.281,42.4627 158.5,43.5C 156.013,42.6772 153.679,41.6772 151.5,40.5C 157.228,40.9466 162.562,39.9466 167.5,37.5C 178.925,33.4692 190.592,29.9692 202.5,27C 209.664,25.9561 216.664,24.7895 223.5,23.5C 227.259,22.0918 230.925,22.2584 234.5,24C 233.263,24.2321 232.263,24.7321 231.5,25.5 Z"/></g>
<g><path style="opacity:1" fill="#517447" d="M 230.5,28.5 C 226.865,29.1143 223.198,29.4476 219.5,29.5C 215.952,30.8427 212.285,31.3427 208.5,31C 211.678,30.3405 214.678,29.5072 217.5,28.5C 222.566,27.3482 226.899,27.3482 230.5,28.5 Z"/></g>
<g><path style="opacity:0.997" fill="#bbc9b4" d="M 186.5,19.5 C 190.314,20.3179 193.981,20.6513 197.5,20.5C 189.265,23.0545 180.932,25.5545 172.5,28C 169.092,31.8628 164.759,33.6962 159.5,33.5C 159.5,34.5 159.5,35.5 159.5,36.5C 156.742,37.8182 153.576,38.4848 150,38.5C 145.147,38.3237 140.314,37.9903 135.5,37.5C 147.096,33.1293 158.762,28.6293 170.5,24C 175.713,21.9835 181.046,20.4835 186.5,19.5 Z"/></g>
<g><path style="opacity:1" fill="#244e1e" d="M 220.5,26.5 C 219.5,27.1667 218.5,27.8333 217.5,28.5C 214.678,29.5072 211.678,30.3405 208.5,31C 212.285,31.3427 215.952,30.8427 219.5,29.5C 220.183,31.1765 221.517,31.8432 223.5,31.5C 222.572,34.1296 221.572,36.7963 220.5,39.5C 219.583,40.1272 218.583,40.4606 217.5,40.5C 217.539,39.4168 217.873,38.4168 218.5,37.5C 214.171,34.501 209.504,33.8344 204.5,35.5C 203.5,35 202.5,34.5 201.5,34C 203.392,33.0266 205.392,32.3599 207.5,32C 205.618,31.8019 203.952,31.3019 202.5,30.5C 208.416,28.7836 214.416,27.4502 220.5,26.5 Z"/></g>
<g><path style="opacity:1" fill="#213419" d="M 236.5,25.5 C 238.607,24.5318 240.941,24.1984 243.5,24.5C 245.027,24.427 246.027,25.0937 246.5,26.5C 246.753,28.8273 246.086,30.8273 244.5,32.5C 242.231,33.8153 239.898,34.9819 237.5,36C 238.416,36.2784 239.082,36.7784 239.5,37.5C 238.041,37.4326 236.708,37.7659 235.5,38.5C 235.082,37.7784 234.416,37.2784 233.5,37C 234.308,36.6924 234.975,36.1924 235.5,35.5C 233.665,34.5723 233.332,33.4056 234.5,32C 237.371,31.8823 240.038,31.2156 242.5,30C 241.552,29.5172 240.552,29.3505 239.5,29.5C 239.5,28.1667 239.5,26.8333 239.5,25.5C 238.5,25.5 237.5,25.5 236.5,25.5 Z"/></g>
<g><path style="opacity:1" fill="#2b5822" d="M 202.5,30.5 C 203.952,31.3019 205.618,31.8019 207.5,32C 205.392,32.3599 203.392,33.0266 201.5,34C 202.5,34.5 203.5,35 204.5,35.5C 209.504,33.8344 214.171,34.501 218.5,37.5C 217.873,38.4168 217.539,39.4168 217.5,40.5C 216.167,40.5 215.5,41.1667 215.5,42.5C 212.138,44.608 208.472,46.2747 204.5,47.5C 200.254,47.5615 196.254,48.5615 192.5,50.5C 195.107,51.3184 197.774,51.8184 200.5,52C 201.337,53.0113 201.67,54.1779 201.5,55.5C 197.5,55.5 193.5,55.5 189.5,55.5C 189.167,54.8333 188.833,54.1667 188.5,53.5C 190.008,51.8185 191.008,49.8185 191.5,47.5C 193.062,47.2671 194.395,46.6005 195.5,45.5C 200.84,44.1075 206.174,42.6075 211.5,41C 213.677,39.8139 214.677,37.9806 214.5,35.5C 206.216,36.7135 197.883,37.3802 189.5,37.5C 187.983,36.2651 186.316,36.2651 184.5,37.5C 183.702,37.0431 183.369,36.3764 183.5,35.5C 189.72,33.4552 196.053,31.7886 202.5,30.5 Z"/></g>
<g><path style="opacity:1" fill="#22331d" d="M 246.5,26.5 C 247.167,26.5 247.833,26.5 248.5,26.5C 248.201,28.604 248.534,30.604 249.5,32.5C 250.72,32.8869 251.387,33.7202 251.5,35C 251.011,36.1385 250.678,37.3052 250.5,38.5C 245.739,41.7218 240.739,44.7218 235.5,47.5C 230.684,48.565 230.351,47.3983 234.5,44C 234.043,43.586 233.709,43.086 233.5,42.5C 236.139,41.5241 238.139,39.8575 239.5,37.5C 239.082,36.7784 238.416,36.2784 237.5,36C 239.898,34.9819 242.231,33.8153 244.5,32.5C 246.086,30.8273 246.753,28.8273 246.5,26.5 Z"/></g>
<g><path style="opacity:1" fill="#507941" d="M 183.5,35.5 C 183.369,36.3764 183.702,37.0431 184.5,37.5C 186.316,36.2651 187.983,36.2651 189.5,37.5C 186.167,38.5 182.833,39.5 179.5,40.5C 178.833,40.8333 178.167,41.1667 177.5,41.5C 171.765,42.58 166.099,43.9133 160.5,45.5C 159.833,44.8333 159.167,44.1667 158.5,43.5C 167.281,42.4627 175.615,39.796 183.5,35.5 Z"/></g>
<g><path style="opacity:0.094" fill="#cae0bc" d="M 135.5,37.5 C 133.898,39.0739 131.898,39.7406 129.5,39.5C 131.214,38.2616 133.214,37.595 135.5,37.5 Z"/></g>
<g><path style="opacity:1" fill="#1d4018" d="M 230.5,28.5 C 231.398,29.1577 232.398,29.8243 233.5,30.5C 232.5,31.3333 231.5,32.1667 230.5,33C 230.258,35.072 230.591,37.2386 231.5,39.5C 229.901,39.2322 228.568,39.5655 227.5,40.5C 225.302,40.1201 223.635,40.7868 222.5,42.5C 220.167,42.5 217.833,42.5 215.5,42.5C 215.5,41.1667 216.167,40.5 217.5,40.5C 218.583,40.4606 219.583,40.1272 220.5,39.5C 221.572,36.7963 222.572,34.1296 223.5,31.5C 221.517,31.8432 220.183,31.1765 219.5,29.5C 223.198,29.4476 226.865,29.1143 230.5,28.5 Z"/></g>
<g><path style="opacity:1" fill="#2e6324" d="M 195.5,45.5 C 196.752,43.6612 196.752,41.8278 195.5,40C 190.508,39.2205 185.841,40.0538 181.5,42.5C 180.478,42.1445 179.811,41.4778 179.5,40.5C 182.833,39.5 186.167,38.5 189.5,37.5C 197.883,37.3802 206.216,36.7135 214.5,35.5C 214.677,37.9806 213.677,39.8139 211.5,41C 206.174,42.6075 200.84,44.1075 195.5,45.5 Z"/></g>
<g><path style="opacity:1" fill="#b3d883" d="M 142.5,40.5 C 145.372,41.3254 148.372,42.1588 151.5,43C 154.177,43.8136 156.177,45.3136 157.5,47.5C 152.93,46.559 148.263,46.2256 143.5,46.5C 140.375,45.5206 137.042,45.1872 133.5,45.5C 131.83,45.7512 130.33,46.4178 129,47.5C 128.667,47.1667 128.333,46.8333 128,46.5C 127.209,47.745 126.709,49.0783 126.5,50.5C 125.428,48.0642 126.095,45.8975 128.5,44C 129.449,43.3828 130.282,43.5494 131,44.5C 134.04,41.0337 137.874,39.7004 142.5,40.5 Z"/></g>
<g><path style="opacity:1" fill="#2a4b28" d="M 227.5,40.5 C 228.811,43.1331 230.311,43.1331 232,40.5C 232.49,41.7932 232.657,43.1266 232.5,44.5C 229.155,44.3256 227.988,45.659 229,48.5C 227.293,47.8617 225.46,47.8617 223.5,48.5C 223.34,50.1992 223.506,51.8659 224,53.5C 225.011,52.6634 226.178,52.33 227.5,52.5C 225.266,54.4459 222.599,55.6126 219.5,56C 218.748,56.6708 218.414,57.5041 218.5,58.5C 217.5,58.5 216.5,58.5 215.5,58.5C 214.245,58.4989 212.912,58.1656 211.5,57.5C 214.566,54.9694 217.9,52.6361 221.5,50.5C 223.442,47.8519 223.776,45.1852 222.5,42.5C 223.635,40.7868 225.302,40.1201 227.5,40.5 Z"/></g>
<g><path style="opacity:1" fill="#264024" d="M 239.5,37.5 C 238.139,39.8575 236.139,41.5241 233.5,42.5C 233.709,43.086 234.043,43.586 234.5,44C 230.351,47.3983 230.684,48.565 235.5,47.5C 233.615,50.2587 230.949,51.9254 227.5,52.5C 226.178,52.33 225.011,52.6634 224,53.5C 223.506,51.8659 223.34,50.1992 223.5,48.5C 225.46,47.8617 227.293,47.8617 229,48.5C 227.988,45.659 229.155,44.3256 232.5,44.5C 232.657,43.1266 232.49,41.7932 232,40.5C 230.311,43.1331 228.811,43.1331 227.5,40.5C 228.568,39.5655 229.901,39.2322 231.5,39.5C 232.833,39.1667 234.167,38.8333 235.5,38.5C 236.708,37.7659 238.041,37.4326 239.5,37.5 Z"/></g>
<g><path style="opacity:1" fill="#2e6520" d="M 195.5,45.5 C 194.395,46.6005 193.062,47.2671 191.5,47.5C 188.833,48.8333 186.167,48.8333 183.5,47.5C 183.768,49.099 183.434,50.4324 182.5,51.5C 182.022,49.0829 181.022,46.9162 179.5,45C 180.167,44.6667 180.833,44.3333 181.5,44C 179.934,43.3918 178.6,42.5585 177.5,41.5C 178.167,41.1667 178.833,40.8333 179.5,40.5C 179.811,41.4778 180.478,42.1445 181.5,42.5C 185.841,40.0538 190.508,39.2205 195.5,40C 196.752,41.8278 196.752,43.6612 195.5,45.5 Z"/></g>
<g><path style="opacity:1" fill="#445741" d="M 250.5,38.5 C 248.22,43.7797 244.553,47.7797 239.5,50.5C 236.248,51.7609 233.248,53.4275 230.5,55.5C 226.435,56.2463 222.435,57.2463 218.5,58.5C 218.414,57.5041 218.748,56.6708 219.5,56C 222.599,55.6126 225.266,54.4459 227.5,52.5C 230.949,51.9254 233.615,50.2587 235.5,47.5C 240.739,44.7218 245.739,41.7218 250.5,38.5 Z"/></g>
<g><path style="opacity:1" fill="#295f1c" d="M 177.5,41.5 C 178.6,42.5585 179.934,43.3918 181.5,44C 180.833,44.3333 180.167,44.6667 179.5,45C 181.022,46.9162 182.022,49.0829 182.5,51.5C 180.164,52.8569 177.83,54.1903 175.5,55.5C 175.473,57.1993 174.806,58.5326 173.5,59.5C 173.5,59.8333 173.5,60.1667 173.5,60.5C 173.151,57.3583 172.984,54.025 173,50.5C 169.556,48.1224 165.723,46.7891 161.5,46.5C 160.833,46.5 160.5,46.1667 160.5,45.5C 166.099,43.9133 171.765,42.58 177.5,41.5 Z"/></g>
<g><path style="opacity:1" fill="#929990" d="M 248.5,26.5 C 250.588,28.3356 251.921,30.6689 252.5,33.5C 252.59,35.6963 252.923,37.863 253.5,40C 251.95,43.3169 250.783,46.8169 250,50.5C 249.586,50.0426 249.086,49.7093 248.5,49.5C 247.692,51.4233 247.192,53.4233 247,55.5C 246.667,54.8333 246.333,54.1667 246,53.5C 245.167,55 244,56.1667 242.5,57C 243.86,59.8076 243.193,60.6409 240.5,59.5C 241.371,56.0436 243.371,53.3769 246.5,51.5C 244.671,50.7176 243.171,51.3843 242,53.5C 241.764,51.8807 240.931,50.8807 239.5,50.5C 244.553,47.7797 248.22,43.7797 250.5,38.5C 250.678,37.3052 251.011,36.1385 251.5,35C 251.387,33.7202 250.72,32.8869 249.5,32.5C 248.534,30.604 248.201,28.604 248.5,26.5 Z"/></g>
<g><path style="opacity:1" fill="#31592c" d="M 215.5,42.5 C 217.833,42.5 220.167,42.5 222.5,42.5C 223.776,45.1852 223.442,47.8519 221.5,50.5C 217.9,52.6361 214.566,54.9694 211.5,57.5C 211.25,55.326 210.25,53.6594 208.5,52.5C 206.445,51.4412 205.111,49.7746 204.5,47.5C 208.472,46.2747 212.138,44.608 215.5,42.5 Z"/></g>
<g><path style="opacity:1" fill="#d3e9a2" d="M 133.5,45.5 C 137.042,45.1872 140.375,45.5206 143.5,46.5C 142.173,48.1816 140.506,49.5149 138.5,50.5C 136.686,50.7721 134.686,50.9387 132.5,51C 131.747,52.487 130.914,52.6537 130,51.5C 128.5,55.0703 127,58.5703 125.5,62C 126.056,62.3826 126.389,62.8826 126.5,63.5C 125.351,63.2089 124.684,62.3756 124.5,61C 126.254,57.3997 127.421,53.5663 128,49.5C 130.311,48.6032 132.144,47.2699 133.5,45.5 Z"/></g>
<g><path style="opacity:1" fill="#2a5d1e" d="M 191.5,47.5 C 191.008,49.8185 190.008,51.8185 188.5,53.5C 185.376,53.9429 183.043,55.6095 181.5,58.5C 178.914,59.48 176.247,59.8134 173.5,59.5C 174.806,58.5326 175.473,57.1993 175.5,55.5C 177.83,54.1903 180.164,52.8569 182.5,51.5C 183.434,50.4324 183.768,49.099 183.5,47.5C 186.167,48.8333 188.833,48.8333 191.5,47.5 Z"/></g>
<g><path style="opacity:0.984" fill="#829d65" d="M 165.5,35.5 C 164.34,37.2027 165.007,37.8693 167.5,37.5C 162.562,39.9466 157.228,40.9466 151.5,40.5C 148.5,40.5 145.5,40.5 142.5,40.5C 130.709,38.705 123.209,43.705 120,55.5C 119.433,58.1677 118.933,60.8344 118.5,63.5C 118.167,66.1667 117.833,68.8333 117.5,71.5C 116.833,71.5 116.5,71.1667 116.5,70.5C 116.5,69.1667 116.5,67.8333 116.5,66.5C 115.412,56.5184 118.412,48.0184 125.5,41C 126.745,40.2086 128.078,39.7086 129.5,39.5C 131.898,39.7406 133.898,39.0739 135.5,37.5C 140.314,37.9903 145.147,38.3237 150,38.5C 153.576,38.4848 156.742,37.8182 159.5,36.5C 161.565,36.4828 163.565,36.1495 165.5,35.5 Z"/></g>
<g><path style="opacity:1" fill="#def0af" d="M 138.5,50.5 C 138.586,51.4959 138.252,52.3292 137.5,53C 139.737,54.3996 141.404,56.233 142.5,58.5C 140.726,59.0169 139.059,59.3502 137.5,59.5C 136.835,61.3691 136.169,63.3691 135.5,65.5C 134.784,64.689 133.95,64.0223 133,63.5C 130.991,63.9949 128.824,63.9949 126.5,63.5C 126.389,62.8826 126.056,62.3826 125.5,62C 127,58.5703 128.5,55.0703 130,51.5C 130.914,52.6537 131.747,52.487 132.5,51C 134.686,50.9387 136.686,50.7721 138.5,50.5 Z"/></g>
<g><path style="opacity:1" fill="#deefaf" d="M 159.5,82.5 C 158.686,84.2726 157.352,84.7726 155.5,84C 154.421,82.1413 153.088,80.6413 151.5,79.5C 152.474,77.9147 153.974,76.9147 156,76.5C 156.167,75.6667 156.333,74.8333 156.5,74C 154.83,69.4855 152.997,64.9855 151,60.5C 149.855,59.3636 148.688,58.3636 147.5,57.5C 148.552,57.2289 149.885,57.0622 151.5,57C 150.027,56.2904 149.36,55.1238 149.5,53.5C 151.903,53.393 153.736,54.393 155,56.5C 156.171,58.8422 157.338,61.1756 158.5,63.5C 159.096,69.8928 159.43,76.2261 159.5,82.5 Z"/></g>
<g><path style="opacity:1" fill="#355f2e" d="M 204.5,47.5 C 205.111,49.7746 206.445,51.4412 208.5,52.5C 208.143,54.5891 207.477,56.5891 206.5,58.5C 202.893,59.4245 199.56,60.0912 196.5,60.5C 196.5,59.5 196.5,58.5 196.5,57.5C 193.921,57.8652 191.588,57.8652 189.5,57.5C 189.5,56.8333 189.5,56.1667 189.5,55.5C 193.5,55.5 197.5,55.5 201.5,55.5C 201.67,54.1779 201.337,53.0113 200.5,52C 197.774,51.8184 195.107,51.3184 192.5,50.5C 196.254,48.5615 200.254,47.5615 204.5,47.5 Z"/></g>
<g><path style="opacity:1" fill="#c3df90" d="M 133.5,45.5 C 132.144,47.2699 130.311,48.6032 128,49.5C 127.421,53.5663 126.254,57.3997 124.5,61C 124.684,62.3756 125.351,63.2089 126.5,63.5C 126.77,68.978 128.437,73.978 131.5,78.5C 132.325,79.3857 133.325,79.719 134.5,79.5C 136.51,80.4867 138.51,81.4867 140.5,82.5C 144.471,80.6516 147.137,81.8182 148.5,86C 147.584,86.2784 146.918,86.7784 146.5,87.5C 141.312,84.5666 135.979,82.2333 130.5,80.5C 128.588,78.9655 127.255,76.9655 126.5,74.5C 125.675,73.6143 124.675,73.281 123.5,73.5C 123.334,66.4921 123.5,59.4921 124,52.5C 125.308,53.1513 126.141,52.4846 126.5,50.5C 126.709,49.0783 127.209,47.745 128,46.5C 128.333,46.8333 128.667,47.1667 129,47.5C 130.33,46.4178 131.83,45.7512 133.5,45.5 Z"/></g>
<g><path style="opacity:1" fill="#3b6037" d="M 208.5,52.5 C 210.25,53.6594 211.25,55.326 211.5,57.5C 212.912,58.1656 214.245,58.4989 215.5,58.5C 215.489,60.0174 214.823,61.1841 213.5,62C 208.093,62.9374 202.759,64.1041 197.5,65.5C 192.674,65.8898 188.007,66.8898 183.5,68.5C 185.595,66.2919 188.262,65.1252 191.5,65C 190.542,63.8525 190.875,62.8525 192.5,62C 194.058,61.79 195.391,61.29 196.5,60.5C 199.56,60.0912 202.893,59.4245 206.5,58.5C 207.477,56.5891 208.143,54.5891 208.5,52.5 Z"/></g>
<g><path style="opacity:1" fill="#d6eda3" d="M 143.5,46.5 C 148.263,46.2256 152.93,46.559 157.5,47.5C 157.973,50.6965 158.639,53.8632 159.5,57C 161.652,59.0851 163.152,61.5851 164,64.5C 164.667,69.1667 164.667,73.8333 164,78.5C 163.066,79.8584 162.232,81.1917 161.5,82.5C 160.833,82.5 160.167,82.5 159.5,82.5C 159.43,76.2261 159.096,69.8928 158.5,63.5C 157.338,61.1756 156.171,58.8422 155,56.5C 153.736,54.393 151.903,53.393 149.5,53.5C 149.36,55.1238 150.027,56.2904 151.5,57C 149.885,57.0622 148.552,57.2289 147.5,57.5C 145.784,57.6287 144.117,57.962 142.5,58.5C 141.404,56.233 139.737,54.3996 137.5,53C 138.252,52.3292 138.586,51.4959 138.5,50.5C 140.506,49.5149 142.173,48.1816 143.5,46.5 Z"/></g>
<g><path style="opacity:1" fill="#839181" d="M 239.5,50.5 C 240.931,50.8807 241.764,51.8807 242,53.5C 243.171,51.3843 244.671,50.7176 246.5,51.5C 243.371,53.3769 241.371,56.0436 240.5,59.5C 239.316,60.6879 239.316,61.8545 240.5,63C 239.335,64.0836 238.002,64.9169 236.5,65.5C 235.571,66.6888 235.238,68.0222 235.5,69.5C 233.833,71.8333 231.833,73.8333 229.5,75.5C 229.586,74.5041 229.252,73.6708 228.5,73C 230.412,71.7998 231.745,70.1331 232.5,68C 231.272,66.5098 231.272,65.0098 232.5,63.5C 234.667,62.802 236.5,61.4687 238,59.5C 238.688,58.6683 238.521,58.0016 237.5,57.5C 233.95,58.4067 230.617,59.74 227.5,61.5C 226.624,61.6309 225.957,61.2975 225.5,60.5C 227.184,59.8503 228.517,58.8503 229.5,57.5C 229.833,56.8333 230.167,56.1667 230.5,55.5C 233.248,53.4275 236.248,51.7609 239.5,50.5 Z"/></g>
<g><path style="opacity:1" fill="#a2c774" d="M 142.5,40.5 C 137.874,39.7004 134.04,41.0337 131,44.5C 130.282,43.5494 129.449,43.3828 128.5,44C 126.095,45.8975 125.428,48.0642 126.5,50.5C 126.141,52.4846 125.308,53.1513 124,52.5C 123.5,59.4921 123.334,66.4921 123.5,73.5C 124.675,73.281 125.675,73.6143 126.5,74.5C 127.255,76.9655 128.588,78.9655 130.5,80.5C 126.853,80.3784 124.019,78.7118 122,75.5C 120.497,71.4683 119.33,67.4683 118.5,63.5C 118.933,60.8344 119.433,58.1677 120,55.5C 123.209,43.705 130.709,38.705 142.5,40.5 Z"/></g>
<g><path style="opacity:1" fill="#86b35b" d="M 142.5,40.5 C 145.5,40.5 148.5,40.5 151.5,40.5C 153.679,41.6772 156.013,42.6772 158.5,43.5C 159.167,44.1667 159.833,44.8333 160.5,45.5C 160.5,46.1667 160.833,46.5 161.5,46.5C 161.778,50.9444 163.611,54.611 167,57.5C 167.39,60.1042 168.224,62.4375 169.5,64.5C 170.53,67.2295 170.53,69.8962 169.5,72.5C 169.167,72.5 168.833,72.5 168.5,72.5C 168.518,65.8894 166.351,60.2228 162,55.5C 162.24,51.7796 160.74,49.113 157.5,47.5C 156.177,45.3136 154.177,43.8136 151.5,43C 148.372,42.1588 145.372,41.3254 142.5,40.5 Z"/></g>
<g><path style="opacity:1" fill="#3b7322" d="M 161.5,46.5 C 165.723,46.7891 169.556,48.1224 173,50.5C 172.984,54.025 173.151,57.3583 173.5,60.5C 172.491,61.9391 172.824,63.2724 174.5,64.5C 173.83,66.8631 173.163,69.1964 172.5,71.5C 172.664,74.1873 172.497,76.854 172,79.5C 172.118,74.0675 171.285,69.0675 169.5,64.5C 168.224,62.4375 167.39,60.1042 167,57.5C 163.611,54.611 161.778,50.9444 161.5,46.5 Z"/></g>
<g><path style="opacity:0.812" fill="#bbc0ba" d="M 252.5,33.5 C 254.963,37.9531 255.13,42.6197 253,47.5C 248.831,56.1785 242.998,63.5118 235.5,69.5C 235.238,68.0222 235.571,66.6888 236.5,65.5C 238.002,64.9169 239.335,64.0836 240.5,63C 239.316,61.8545 239.316,60.6879 240.5,59.5C 243.193,60.6409 243.86,59.8076 242.5,57C 244,56.1667 245.167,55 246,53.5C 246.333,54.1667 246.667,54.8333 247,55.5C 247.192,53.4233 247.692,51.4233 248.5,49.5C 249.086,49.7093 249.586,50.0426 250,50.5C 250.783,46.8169 251.95,43.3169 253.5,40C 252.923,37.863 252.59,35.6963 252.5,33.5 Z"/></g>
<g><path style="opacity:1" fill="#33632c" d="M 188.5,53.5 C 188.833,54.1667 189.167,54.8333 189.5,55.5C 189.5,56.1667 189.5,56.8333 189.5,57.5C 188.504,57.5858 187.671,57.2524 187,56.5C 184.891,57.0353 184.391,58.0353 185.5,59.5C 184.166,59.5293 182.833,60.3627 181.5,62C 182.167,62.3333 182.833,62.6667 183.5,63C 181.536,64.451 180.203,66.2843 179.5,68.5C 178.167,68.5 176.833,68.5 175.5,68.5C 175.737,69.791 175.404,70.791 174.5,71.5C 173.833,71.5 173.167,71.5 172.5,71.5C 173.163,69.1964 173.83,66.8631 174.5,64.5C 172.824,63.2724 172.491,61.9391 173.5,60.5C 173.5,60.1667 173.5,59.8333 173.5,59.5C 176.247,59.8134 178.914,59.48 181.5,58.5C 183.043,55.6095 185.376,53.9429 188.5,53.5 Z"/></g>
<g><path style="opacity:1" fill="#356031" d="M 189.5,57.5 C 191.588,57.8652 193.921,57.8652 196.5,57.5C 196.5,58.5 196.5,59.5 196.5,60.5C 195.391,61.29 194.058,61.79 192.5,62C 190.875,62.8525 190.542,63.8525 191.5,65C 188.262,65.1252 185.595,66.2919 183.5,68.5C 182.167,68.5 180.833,68.5 179.5,68.5C 180.203,66.2843 181.536,64.451 183.5,63C 182.833,62.6667 182.167,62.3333 181.5,62C 182.833,60.3627 184.166,59.5293 185.5,59.5C 184.391,58.0353 184.891,57.0353 187,56.5C 187.671,57.2524 188.504,57.5858 189.5,57.5 Z"/></g>
<g><path style="opacity:1" fill="#d7eda4" d="M 137.5,59.5 C 137.5,61.8333 137.5,64.1667 137.5,66.5C 135.5,66.5 133.5,66.5 131.5,66.5C 131.5,68.8333 131.5,71.1667 131.5,73.5C 132.833,73.5 134.167,73.5 135.5,73.5C 135.52,75.143 134.853,76.4763 133.5,77.5C 133.863,78.1835 134.196,78.8501 134.5,79.5C 133.325,79.719 132.325,79.3857 131.5,78.5C 128.437,73.978 126.77,68.978 126.5,63.5C 128.824,63.9949 130.991,63.9949 133,63.5C 133.95,64.0223 134.784,64.689 135.5,65.5C 136.169,63.3691 136.835,61.3691 137.5,59.5 Z"/></g>
<g><path style="opacity:1" fill="#61795d" d="M 230.5,55.5 C 230.167,56.1667 229.833,56.8333 229.5,57.5C 224.684,59.1306 220.184,61.4639 216,64.5C 215.439,63.9781 214.772,63.6448 214,63.5C 208.8,64.7418 203.967,66.7418 199.5,69.5C 199.473,67.8007 198.806,66.4674 197.5,65.5C 202.759,64.1041 208.093,62.9374 213.5,62C 214.823,61.1841 215.489,60.0174 215.5,58.5C 216.5,58.5 217.5,58.5 218.5,58.5C 222.435,57.2463 226.435,56.2463 230.5,55.5 Z"/></g>
<g><path style="opacity:0.247" fill="#d9e6c6" d="M 107.5,66.5 C 97.521,65.7039 87.521,65.3705 77.5,65.5C 80.4569,64.4737 83.6235,63.807 87,63.5C 94.0501,63.9968 100.883,64.9968 107.5,66.5 Z"/></g>
<g><path style="opacity:0.957" fill="#a7ba8c" d="M 77.5,65.5 C 87.521,65.3705 97.521,65.7039 107.5,66.5C 108.791,66.2627 109.791,66.596 110.5,67.5C 111.643,69.1007 110.976,69.7674 108.5,69.5C 95.6476,65.2427 82.9809,65.576 70.5,70.5C 68.7839,70.6287 67.1172,70.962 65.5,71.5C 69.1509,69.0078 73.1509,67.0078 77.5,65.5 Z"/></g>
<g><path style="opacity:1" fill="#bddd86" d="M 157.5,47.5 C 160.74,49.113 162.24,51.7796 162,55.5C 166.351,60.2228 168.518,65.8894 168.5,72.5C 168.662,74.5273 168.495,76.5273 168,78.5C 167.586,78.9574 167.086,79.2907 166.5,79.5C 165.833,82.1667 165.167,84.8333 164.5,87.5C 163.817,87.8627 163.15,88.1961 162.5,88.5C 161.757,86.3035 161.424,84.3035 161.5,82.5C 162.232,81.1917 163.066,79.8584 164,78.5C 164.667,73.8333 164.667,69.1667 164,64.5C 163.152,61.5851 161.652,59.0851 159.5,57C 158.639,53.8632 157.973,50.6965 157.5,47.5 Z"/></g>
<g><path style="opacity:1" fill="#72896f" d="M 229.5,57.5 C 228.517,58.8503 227.184,59.8503 225.5,60.5C 225.957,61.2975 226.624,61.6309 227.5,61.5C 225.326,63.0814 222.993,64.5814 220.5,66C 214.167,67.1545 208.167,68.9878 202.5,71.5C 202.167,71.5 201.833,71.5 201.5,71.5C 200.508,71.6716 199.842,71.3382 199.5,70.5C 199.5,70.1667 199.5,69.8333 199.5,69.5C 203.967,66.7418 208.8,64.7418 214,63.5C 214.772,63.6448 215.439,63.9781 216,64.5C 220.184,61.4639 224.684,59.1306 229.5,57.5 Z"/></g>
<g><path style="opacity:1" fill="#bfd898" d="M 110.5,67.5 C 112.17,67.7512 113.67,68.4178 115,69.5C 115.232,68.2625 115.732,67.2625 116.5,66.5C 116.5,67.8333 116.5,69.1667 116.5,70.5C 115.188,70.8243 114.355,71.4909 114,72.5C 112.079,70.9972 109.912,70.3305 107.5,70.5C 101.557,69.399 95.5574,68.7323 89.5,68.5C 86.3004,68.6015 83.3004,69.2681 80.5,70.5C 78.4248,69.2385 76.4248,69.4052 74.5,71C 75.4158,71.2784 76.0825,71.7784 76.5,72.5C 75.391,72.5569 74.391,72.8902 73.5,73.5C 71.1667,74.1667 68.8333,74.8333 66.5,75.5C 66.9118,77.9726 65.9118,79.3059 63.5,79.5C 60.9645,83.3548 59.9645,87.6882 60.5,92.5C 61.5,92.5 62.5,92.5 63.5,92.5C 63.4326,93.9587 63.7659,95.2921 64.5,96.5C 59.4627,93.7764 57.4627,89.4431 58.5,83.5C 59.0844,80.7555 60.4177,78.4221 62.5,76.5C 65.4858,74.837 68.1525,72.837 70.5,70.5C 82.9809,65.576 95.6476,65.2427 108.5,69.5C 110.976,69.7674 111.643,69.1007 110.5,67.5 Z"/></g>
<g><path style="opacity:1" fill="#c4d98e" d="M 142.5,58.5 C 143.559,63.8022 143.725,69.1355 143,74.5C 143.561,73.9781 144.228,73.6448 145,73.5C 147.343,75.402 149.51,77.402 151.5,79.5C 153.088,80.6413 154.421,82.1413 155.5,84C 157.352,84.7726 158.686,84.2726 159.5,82.5C 160.167,82.5 160.833,82.5 161.5,82.5C 161.424,84.3035 161.757,86.3035 162.5,88.5C 162.5,90.5 162.5,92.5 162.5,94.5C 160.194,94.0074 157.861,93.6741 155.5,93.5C 152.5,91.5 149.5,89.5 146.5,87.5C 146.918,86.7784 147.584,86.2784 148.5,86C 147.137,81.8182 144.471,80.6516 140.5,82.5C 138.51,81.4867 136.51,80.4867 134.5,79.5C 134.196,78.8501 133.863,78.1835 133.5,77.5C 134.853,76.4763 135.52,75.143 135.5,73.5C 134.167,73.5 132.833,73.5 131.5,73.5C 131.5,71.1667 131.5,68.8333 131.5,66.5C 133.5,66.5 135.5,66.5 137.5,66.5C 137.5,64.1667 137.5,61.8333 137.5,59.5C 139.059,59.3502 140.726,59.0169 142.5,58.5 Z"/></g>
<g><path style="opacity:1" fill="#5c705a" d="M 232.5,63.5 C 230.566,64.1103 228.899,65.1103 227.5,66.5C 225.456,67.0312 223.789,68.1978 222.5,70C 218.984,69.7227 215.651,70.7227 212.5,73C 209.157,72.8396 205.824,72.3396 202.5,71.5C 208.167,68.9878 214.167,67.1545 220.5,66C 222.993,64.5814 225.326,63.0814 227.5,61.5C 230.617,59.74 233.95,58.4067 237.5,57.5C 238.521,58.0016 238.688,58.6683 238,59.5C 236.5,61.4687 234.667,62.802 232.5,63.5 Z"/></g>
<g><path style="opacity:1" fill="#daf3ae" d="M 107.5,70.5 C 107.557,71.609 107.89,72.609 108.5,73.5C 107.833,73.5 107.167,73.5 106.5,73.5C 104.625,71.7606 102.292,70.7606 99.5,70.5C 91.8289,71.2037 84.1622,71.8704 76.5,72.5C 76.0825,71.7784 75.4158,71.2784 74.5,71C 76.4248,69.4052 78.4248,69.2385 80.5,70.5C 83.3004,69.2681 86.3004,68.6015 89.5,68.5C 95.5574,68.7323 101.557,69.399 107.5,70.5 Z"/></g>
<g><path style="opacity:1" fill="#d1e09c" d="M 147.5,57.5 C 148.688,58.3636 149.855,59.3636 151,60.5C 152.997,64.9855 154.83,69.4855 156.5,74C 156.333,74.8333 156.167,75.6667 156,76.5C 153.974,76.9147 152.474,77.9147 151.5,79.5C 149.51,77.402 147.343,75.402 145,73.5C 144.228,73.6448 143.561,73.9781 143,74.5C 143.725,69.1355 143.559,63.8022 142.5,58.5C 144.117,57.962 145.784,57.6287 147.5,57.5 Z"/></g>
<g><path style="opacity:1" fill="#5e7f53" d="M 197.5,65.5 C 198.806,66.4674 199.473,67.8007 199.5,69.5C 199.5,69.8333 199.5,70.1667 199.5,70.5C 193.959,70.4354 189.959,72.7688 187.5,77.5C 187.53,76.5028 187.03,75.8361 186,75.5C 182.981,77.1973 179.981,78.8639 177,80.5C 175.098,85.7715 172.931,90.9382 170.5,96C 171.749,96.7401 172.749,96.5735 173.5,95.5C 174.167,95.5 174.833,95.5 175.5,95.5C 172.221,97.9062 168.721,100.24 165,102.5C 164.333,103.167 164.333,103.833 165,104.5C 165.977,103.226 166.811,103.226 167.5,104.5C 167.5,105.833 167.5,107.167 167.5,108.5C 167.719,109.675 167.386,110.675 166.5,111.5C 165.333,109.921 164,108.588 162.5,107.5C 161.566,106.432 161.232,105.099 161.5,103.5C 162.674,102.486 163.34,101.153 163.5,99.5C 165.144,98.6836 166.31,97.3502 167,95.5C 167.667,96.8333 168.333,96.8333 169,95.5C 169.494,90.6799 171.161,86.3466 174,82.5C 174.499,78.8484 174.665,75.1817 174.5,71.5C 175.404,70.791 175.737,69.791 175.5,68.5C 176.833,68.5 178.167,68.5 179.5,68.5C 180.833,68.5 182.167,68.5 183.5,68.5C 188.007,66.8898 192.674,65.8898 197.5,65.5 Z"/></g>
<g><path style="opacity:1" fill="#e7fbc5" d="M 106.5,73.5 C 96.4179,72.0049 86.4179,72.5049 76.5,75C 72.2782,78.4561 69.6115,82.7894 68.5,88C 69.3734,89.045 70.3734,89.8783 71.5,90.5C 71.366,92.2915 71.6993,93.9582 72.5,95.5C 68.8664,94.3611 66.8664,91.8611 66.5,88C 67.2489,86.2663 67.7489,84.433 68,82.5C 70.3578,79.7777 72.1911,76.7777 73.5,73.5C 74.391,72.8902 75.391,72.5569 76.5,72.5C 84.1622,71.8704 91.8289,71.2037 99.5,70.5C 102.292,70.7606 104.625,71.7606 106.5,73.5 Z"/></g>
<g><path style="opacity:1" fill="#7c8877" d="M 232.5,63.5 C 231.272,65.0098 231.272,66.5098 232.5,68C 231.745,70.1331 230.412,71.7998 228.5,73C 229.252,73.6708 229.586,74.5041 229.5,75.5C 227.14,77.8532 224.473,79.8532 221.5,81.5C 221.5,80.8333 221.5,80.1667 221.5,79.5C 223.191,76.4641 224.358,73.1307 225,69.5C 226.045,68.6266 226.878,67.6266 227.5,66.5C 228.899,65.1103 230.566,64.1103 232.5,63.5 Z"/></g>
<g><path style="opacity:1" fill="#eefcd1" d="M 106.5,73.5 C 109.788,80.3757 107.788,82.209 100.5,79C 99.944,78.6174 99.6107,78.1174 99.5,77.5C 98.8783,76.3734 98.045,75.3734 97,74.5C 95.0332,76.2695 92.6998,77.2695 90,77.5C 86.8611,76.5743 83.6944,76.4077 80.5,77C 78.9926,80.8321 77.6592,84.6654 76.5,88.5C 75.2209,87.032 73.5542,86.3653 71.5,86.5C 71.5,87.8333 71.5,89.1667 71.5,90.5C 70.3734,89.8783 69.3734,89.045 68.5,88C 69.6115,82.7894 72.2782,78.4561 76.5,75C 86.4179,72.5049 96.4179,72.0049 106.5,73.5 Z"/></g>
<g><path style="opacity:1" fill="#cdec9f" d="M 107.5,70.5 C 109.912,70.3305 112.079,70.9972 114,72.5C 114.355,71.4909 115.188,70.8243 116.5,70.5C 116.5,71.1667 116.833,71.5 117.5,71.5C 117.733,74.9089 119.4,77.4089 122.5,79C 118.83,79.5482 115.163,80.0482 111.5,80.5C 111.611,79.8826 111.944,79.3826 112.5,79C 111.588,76.7951 110.255,74.9618 108.5,73.5C 107.89,72.609 107.557,71.609 107.5,70.5 Z"/></g>
<g><path style="opacity:1" fill="#5e7756" d="M 199.5,70.5 C 199.842,71.3382 200.508,71.6716 201.5,71.5C 199.069,72.7409 199.069,73.9076 201.5,75C 200.584,75.2784 199.918,75.7784 199.5,76.5C 196.413,77.2468 193.746,78.5801 191.5,80.5C 188.71,80.9491 186.044,80.9491 183.5,80.5C 184.901,79.4793 186.235,78.4793 187.5,77.5C 189.959,72.7688 193.959,70.4354 199.5,70.5 Z"/></g>
<g><path style="opacity:1" fill="#6b8067" d="M 227.5,66.5 C 226.878,67.6266 226.045,68.6266 225,69.5C 224.358,73.1307 223.191,76.4641 221.5,79.5C 216.274,79.9476 211.607,81.7809 207.5,85C 205.527,85.4955 203.527,85.6621 201.5,85.5C 202.091,84.8485 202.757,84.1818 203.5,83.5C 200.942,81.8799 200.942,80.3799 203.5,79C 201.934,78.3918 200.6,77.5585 199.5,76.5C 199.918,75.7784 200.584,75.2784 201.5,75C 199.069,73.9076 199.069,72.7409 201.5,71.5C 201.833,71.5 202.167,71.5 202.5,71.5C 205.824,72.3396 209.157,72.8396 212.5,73C 215.651,70.7227 218.984,69.7227 222.5,70C 223.789,68.1978 225.456,67.0312 227.5,66.5 Z"/></g>
<g><path style="opacity:1" fill="#5e8a30" d="M 118.5,63.5 C 119.33,67.4683 120.497,71.4683 122,75.5C 124.019,78.7118 126.853,80.3784 130.5,80.5C 135.979,82.2333 141.312,84.5666 146.5,87.5C 149.5,89.5 152.5,91.5 155.5,93.5C 157.36,94.9387 159.027,96.6053 160.5,98.5C 161.209,99.404 162.209,99.7373 163.5,99.5C 163.34,101.153 162.674,102.486 161.5,103.5C 160.189,100.189 157.855,97.8552 154.5,96.5C 147.4,88.5595 138.4,84.2261 127.5,83.5C 127.389,82.8826 127.056,82.3826 126.5,82C 121.753,81.0056 117.253,81.5056 113,83.5C 111.97,83.1639 111.47,82.4972 111.5,81.5C 111.5,81.1667 111.5,80.8333 111.5,80.5C 115.163,80.0482 118.83,79.5482 122.5,79C 119.4,77.4089 117.733,74.9089 117.5,71.5C 117.833,68.8333 118.167,66.1667 118.5,63.5 Z"/></g>
<g><path style="opacity:1" fill="#effbcf" d="M 95.5,83.5 C 95.369,84.2389 95.5357,84.9056 96,85.5C 99.725,82.7029 100.392,83.3696 98,87.5C 97.6924,88.3081 97.1924,88.9747 96.5,89.5C 95.4822,88.8075 94.4822,88.1408 93.5,87.5C 79.5604,88.659 78.8937,85.9923 91.5,79.5C 93.397,80.3681 94.7304,81.7014 95.5,83.5 Z"/></g>
<g><path style="opacity:1" fill="#e7f7bf" d="M 106.5,73.5 C 107.167,73.5 107.833,73.5 108.5,73.5C 110.255,74.9618 111.588,76.7951 112.5,79C 111.944,79.3826 111.611,79.8826 111.5,80.5C 111.5,80.8333 111.5,81.1667 111.5,81.5C 110.508,81.3284 109.842,81.6618 109.5,82.5C 107.821,82.8923 106.154,83.3923 104.5,84C 103.672,85.9923 102.339,87.4923 100.5,88.5C 98.9256,88.9371 97.7589,89.9371 97,91.5C 96.6667,91.1667 96.3333,90.8333 96,90.5C 95.8019,92.3817 95.3019,94.0484 94.5,95.5C 93.4502,95.0954 93.4502,94.4288 94.5,93.5C 91.025,91.9158 90.6917,89.9158 93.5,87.5C 94.4822,88.1408 95.4822,88.8075 96.5,89.5C 97.1924,88.9747 97.6924,88.3081 98,87.5C 100.392,83.3696 99.725,82.7029 96,85.5C 95.5357,84.9056 95.369,84.2389 95.5,83.5C 95.9539,81.7411 95.9539,79.7411 95.5,77.5C 96.8333,77.5 98.1667,77.5 99.5,77.5C 99.6107,78.1174 99.944,78.6174 100.5,79C 107.788,82.209 109.788,80.3757 106.5,73.5 Z"/></g>
<g><path style="opacity:1" fill="#ccefa1" d="M 63.5,79.5 C 63.3347,83.1817 63.5014,86.8484 64,90.5C 65.8358,91.6694 67.0024,93.336 67.5,95.5C 70.1636,96.4978 72.497,97.9978 74.5,100C 80.8246,100.5 87.1579,100.666 93.5,100.5C 93.5,101.5 93.5,102.5 93.5,103.5C 86.052,103.848 78.7187,103.182 71.5,101.5C 69.2795,99.6861 66.9461,98.0194 64.5,96.5C 63.7659,95.2921 63.4326,93.9587 63.5,92.5C 62.5,92.5 61.5,92.5 60.5,92.5C 59.9645,87.6882 60.9645,83.3548 63.5,79.5 Z"/></g>
<g><path style="opacity:1" fill="#6b8664" d="M 187.5,77.5 C 186.235,78.4793 184.901,79.4793 183.5,80.5C 186.044,80.9491 188.71,80.9491 191.5,80.5C 191.759,83.4797 190.426,85.313 187.5,86C 183.143,86.8535 178.809,87.6868 174.5,88.5C 174.007,90.8056 173.674,93.139 173.5,95.5C 172.749,96.5735 171.749,96.7401 170.5,96C 172.931,90.9382 175.098,85.7715 177,80.5C 179.981,78.8639 182.981,77.1973 186,75.5C 187.03,75.8361 187.53,76.5028 187.5,77.5 Z"/></g>
<g><path style="opacity:1" fill="#688163" d="M 199.5,76.5 C 200.6,77.5585 201.934,78.3918 203.5,79C 200.942,80.3799 200.942,81.8799 203.5,83.5C 202.757,84.1818 202.091,84.8485 201.5,85.5C 198.711,87.2114 195.711,88.5447 192.5,89.5C 186.809,91.5474 181.143,93.5474 175.5,95.5C 174.833,95.5 174.167,95.5 173.5,95.5C 173.674,93.139 174.007,90.8056 174.5,88.5C 178.809,87.6868 183.143,86.8535 187.5,86C 190.426,85.313 191.759,83.4797 191.5,80.5C 193.746,78.5801 196.413,77.2468 199.5,76.5 Z"/></g>
<g><path style="opacity:1" fill="#5e8132" d="M 109.5,82.5 C 110.738,82.81 110.738,83.31 109.5,84C 105.736,86.0942 102.569,88.9275 100,92.5C 99.6012,92.2716 99.4346,91.9382 99.5,91.5C 99.5569,90.391 99.8902,89.391 100.5,88.5C 102.339,87.4923 103.672,85.9923 104.5,84C 106.154,83.3923 107.821,82.8923 109.5,82.5 Z"/></g>
<g><path style="opacity:0.278" fill="#e0edcd" d="M 56.5,81.5 C 56.5729,85.7202 54.5729,88.0536 50.5,88.5C 53.2003,86.7656 55.2003,84.4323 56.5,81.5 Z"/></g>
<g><path style="opacity:1" fill="#e0f6b9" d="M 73.5,73.5 C 72.1911,76.7777 70.3578,79.7777 68,82.5C 67.7489,84.433 67.2489,86.2663 66.5,88C 66.8664,91.8611 68.8664,94.3611 72.5,95.5C 74.4705,96.1616 76.4705,96.8283 78.5,97.5C 82.4295,96.5672 86.4295,96.2338 90.5,96.5C 92.099,96.7678 93.4324,96.4345 94.5,95.5C 95.3019,94.0484 95.8019,92.3817 96,90.5C 96.3333,90.8333 96.6667,91.1667 97,91.5C 97.7589,89.9371 98.9256,88.9371 100.5,88.5C 99.8902,89.391 99.5569,90.391 99.5,91.5C 98.5987,92.2905 97.9321,93.2905 97.5,94.5C 96.6373,96.4214 95.9707,98.4214 95.5,100.5C 94.8333,100.5 94.1667,100.5 93.5,100.5C 87.1579,100.666 80.8246,100.5 74.5,100C 72.497,97.9978 70.1636,96.4978 67.5,95.5C 67.0024,93.336 65.8358,91.6694 64,90.5C 63.5014,86.8484 63.3347,83.1817 63.5,79.5C 65.9118,79.3059 66.9118,77.9726 66.5,75.5C 68.8333,74.8333 71.1667,74.1667 73.5,73.5 Z"/></g>
<g><path style="opacity:1" fill="#ebf7c3" d="M 99.5,77.5 C 98.1667,77.5 96.8333,77.5 95.5,77.5C 95.9539,79.7411 95.9539,81.7411 95.5,83.5C 94.7304,81.7014 93.397,80.3681 91.5,79.5C 78.8937,85.9923 79.5604,88.659 93.5,87.5C 90.6917,89.9158 91.025,91.9158 94.5,93.5C 93.4502,94.4288 93.4502,95.0954 94.5,95.5C 93.4324,96.4345 92.099,96.7678 90.5,96.5C 90.5,95.5 90.5,94.5 90.5,93.5C 86.8333,93.5 83.1667,93.5 79.5,93.5C 79.7271,91.0672 78.7271,89.4006 76.5,88.5C 77.6592,84.6654 78.9926,80.8321 80.5,77C 83.6944,76.4077 86.8611,76.5743 90,77.5C 92.6998,77.2695 95.0332,76.2695 97,74.5C 98.045,75.3734 98.8783,76.3734 99.5,77.5 Z"/></g>
<g><path style="opacity:0.961" fill="#596956" d="M 221.5,79.5 C 221.5,80.1667 221.5,80.8333 221.5,81.5C 212.288,87.7716 202.288,92.4382 191.5,95.5C 191.325,93.3792 191.659,91.3792 192.5,89.5C 195.711,88.5447 198.711,87.2114 201.5,85.5C 203.527,85.6621 205.527,85.4955 207.5,85C 211.607,81.7809 216.274,79.9476 221.5,79.5 Z"/></g>
<g><path style="opacity:0.125" fill="#e4efd4" d="M 50.5,88.5 C 47.8717,90.4884 45.205,92.4884 42.5,94.5C 43.9726,91.0789 46.6393,89.0789 50.5,88.5 Z"/></g>
<g><path style="opacity:0.875" fill="#92a778" d="M 70.5,70.5 C 68.1525,72.837 65.4858,74.837 62.5,76.5C 60.4177,78.4221 59.0844,80.7555 58.5,83.5C 58.0276,85.5313 57.0276,87.1979 55.5,88.5C 54.8333,88.5 54.5,88.8333 54.5,89.5C 44.8458,92.372 41.5125,98.7054 44.5,108.5C 43.5452,111.487 44.3785,114.153 47,116.5C 47.4935,118.134 47.6602,119.801 47.5,121.5C 46.3951,120.4 45.0618,119.733 43.5,119.5C 43.5,119.167 43.5,118.833 43.5,118.5C 42.9266,113.105 41.9266,107.772 40.5,102.5C 41.1754,99.8222 41.842,97.1555 42.5,94.5C 45.205,92.4884 47.8717,90.4884 50.5,88.5C 54.5729,88.0536 56.5729,85.7202 56.5,81.5C 58.1053,76.8955 61.1053,73.5622 65.5,71.5C 67.1172,70.962 68.7839,70.6287 70.5,70.5 Z"/></g>
<g><path style="opacity:1" fill="#9ec56e" d="M 168.5,72.5 C 168.833,72.5 169.167,72.5 169.5,72.5C 170.99,81.0172 169.323,89.0172 164.5,96.5C 163.423,97.7051 162.09,98.3718 160.5,98.5C 159.027,96.6053 157.36,94.9387 155.5,93.5C 157.861,93.6741 160.194,94.0074 162.5,94.5C 162.5,92.5 162.5,90.5 162.5,88.5C 163.15,88.1961 163.817,87.8627 164.5,87.5C 165.167,84.8333 165.833,82.1667 166.5,79.5C 167.086,79.2907 167.586,78.9574 168,78.5C 168.495,76.5273 168.662,74.5273 168.5,72.5 Z"/></g>
<g><path style="opacity:1" fill="#f0fcd1" d="M 76.5,88.5 C 78.7271,89.4006 79.7271,91.0672 79.5,93.5C 83.1667,93.5 86.8333,93.5 90.5,93.5C 90.5,94.5 90.5,95.5 90.5,96.5C 86.4295,96.2338 82.4295,96.5672 78.5,97.5C 76.4705,96.8283 74.4705,96.1616 72.5,95.5C 71.6993,93.9582 71.366,92.2915 71.5,90.5C 71.5,89.1667 71.5,87.8333 71.5,86.5C 73.5542,86.3653 75.2209,87.032 76.5,88.5 Z"/></g>
<g><path style="opacity:1" fill="#eaf8bf" d="M 130.5,95.5 C 126.802,95.5524 123.135,95.8857 119.5,96.5C 119.5,97.5 119.5,98.5 119.5,99.5C 116.167,99.5 114.5,101.167 114.5,104.5C 113.222,104.218 112.222,103.551 111.5,102.5C 111.5,100.5 111.5,98.5 111.5,96.5C 112.847,95.8288 114.014,95.8288 115,96.5C 119.925,90.6595 125.758,89.8262 132.5,94C 131.584,94.2784 130.918,94.7784 130.5,95.5 Z"/></g>
<g><path style="opacity:1" fill="#495f47" d="M 192.5,89.5 C 191.659,91.3792 191.325,93.3792 191.5,95.5C 183.542,98.4878 175.542,101.488 167.5,104.5C 166.811,103.226 165.977,103.226 165,104.5C 164.333,103.833 164.333,103.167 165,102.5C 168.721,100.24 172.221,97.9062 175.5,95.5C 181.143,93.5474 186.809,91.5474 192.5,89.5 Z"/></g>
<g><path style="opacity:1" fill="#7ea65b" d="M 58.5,83.5 C 57.4627,89.4431 59.4627,93.7764 64.5,96.5C 66.9461,98.0194 69.2795,99.6861 71.5,101.5C 68.9356,103.291 67.269,102.624 66.5,99.5C 64.2507,97.2948 62.2507,97.2948 60.5,99.5C 61.9108,101.017 61.7441,102.351 60,103.5C 58.8372,101.715 58.1705,99.7148 58,97.5C 57.5357,98.0944 57.369,98.7611 57.5,99.5C 57.1667,99.5 56.8333,99.5 56.5,99.5C 56.4476,95.8019 56.1143,92.1352 55.5,88.5C 57.0276,87.1979 58.0276,85.5313 58.5,83.5 Z"/></g>
<g><path style="opacity:1" fill="#b7d889" d="M 149.5,95.5 C 151.216,95.6287 152.883,95.962 154.5,96.5C 157.855,97.8552 160.189,100.189 161.5,103.5C 161.232,105.099 161.566,106.432 162.5,107.5C 162.275,109.716 163.108,111.383 165,112.5C 165.498,115.817 165.665,119.15 165.5,122.5C 164.5,122.5 163.5,122.5 162.5,122.5C 162.768,124.099 162.434,125.432 161.5,126.5C 161.666,121.489 161.499,116.489 161,111.5C 159.758,109.141 158.258,107.141 156.5,105.5C 155.163,104.685 154.163,103.518 153.5,102C 151.942,101.79 150.609,101.29 149.5,100.5C 149.167,99.5 148.5,98.8333 147.5,98.5C 146.086,96.4017 146.752,95.4017 149.5,95.5 Z"/></g>
<g><path style="opacity:1" fill="#699447" d="M 169.5,64.5 C 171.285,69.0675 172.118,74.0675 172,79.5C 172.497,76.854 172.664,74.1873 172.5,71.5C 173.167,71.5 173.833,71.5 174.5,71.5C 174.665,75.1817 174.499,78.8484 174,82.5C 171.161,86.3466 169.494,90.6799 169,95.5C 168.333,96.8333 167.667,96.8333 167,95.5C 166.31,97.3502 165.144,98.6836 163.5,99.5C 162.209,99.7373 161.209,99.404 160.5,98.5C 162.09,98.3718 163.423,97.7051 164.5,96.5C 169.323,89.0172 170.99,81.0172 169.5,72.5C 170.53,69.8962 170.53,67.2295 169.5,64.5 Z"/></g>
<g><path style="opacity:1" fill="#d8efa6" d="M 109.5,92.5 C 109.5,92.8333 109.5,93.1667 109.5,93.5C 108.662,93.8417 108.328,94.5084 108.5,95.5C 109.23,99.778 109.897,104.111 110.5,108.5C 106.588,111.23 106.588,114.063 110.5,117C 114.687,117.622 117.687,119.789 119.5,123.5C 115.377,122.471 111.377,121.137 107.5,119.5C 105.576,111.958 105.076,104.291 106,96.5C 106.498,94.4556 107.665,93.1223 109.5,92.5 Z"/></g>
<g><path style="opacity:1" fill="#d4e59e" d="M 142.5,95.5 C 143.943,96.3351 144.943,97.6684 145.5,99.5C 146.183,99.1373 146.85,98.8039 147.5,98.5C 148.5,98.8333 149.167,99.5 149.5,100.5C 148.167,100.5 146.833,100.5 145.5,100.5C 145.5,101.5 145.5,102.5 145.5,103.5C 145.799,105.604 145.466,107.604 144.5,109.5C 142.602,108.266 140.935,108.599 139.5,110.5C 137.827,108.914 135.827,108.247 133.5,108.5C 133.48,106.857 134.147,105.524 135.5,104.5C 133.219,103.815 130.886,103.649 128.5,104C 127.663,102.989 127.33,101.822 127.5,100.5C 127.5,99.1667 127.5,97.8333 127.5,96.5C 128.833,96.5 130.167,96.5 131.5,96.5C 131.897,98.9628 133.064,100.963 135,102.5C 137.719,101.556 140.552,101.223 143.5,101.5C 143.675,99.3792 143.341,97.3792 142.5,95.5 Z"/></g>
<g><path style="opacity:1" fill="#def2ac" d="M 142.5,95.5 C 143.341,97.3792 143.675,99.3792 143.5,101.5C 140.552,101.223 137.719,101.556 135,102.5C 133.064,100.963 131.897,98.9628 131.5,96.5C 131.5,96.1667 131.5,95.8333 131.5,95.5C 133.561,97.2101 135.895,98.5434 138.5,99.5C 139.5,99.3333 140.5,99.1667 141.5,99C 140.663,97.9887 140.33,96.8221 140.5,95.5C 135.146,92.3907 129.313,90.724 123,90.5C 118.538,91.8192 114.038,92.8192 109.5,93.5C 109.5,93.1667 109.5,92.8333 109.5,92.5C 111.123,91.2206 112.79,89.8872 114.5,88.5C 116.824,88.9868 119.324,88.9868 122,88.5C 126.189,88.8127 130.356,89.3127 134.5,90C 136.895,92.3812 139.561,94.2146 142.5,95.5 Z"/></g>
<g><path style="opacity:1" fill="#b5db83" d="M 127.5,83.5 C 138.4,84.2261 147.4,88.5595 154.5,96.5C 152.883,95.962 151.216,95.6287 149.5,95.5C 147.709,94.6087 145.876,93.6087 144,92.5C 143.667,92.8333 143.333,93.1667 143,93.5C 141.173,90.8397 139.006,88.5064 136.5,86.5C 128.879,85.6859 120.879,85.6859 112.5,86.5C 108.883,88.7005 106.049,91.7005 104,95.5C 103.8,99.7533 103.3,103.92 102.5,108C 102.608,112.242 103.774,116.409 106,120.5C 107.878,121.053 109.378,122.053 110.5,123.5C 112.662,124.128 114.328,125.461 115.5,127.5C 111.08,126.792 107.414,124.792 104.5,121.5C 102.831,119.408 101.164,117.408 99.5,115.5C 95.9097,93.6937 105.243,83.0271 127.5,83.5 Z"/></g>
<g><path style="opacity:1" fill="#558935" d="M 71.5,101.5 C 78.7187,103.182 86.052,103.848 93.5,103.5C 93.5,102.5 93.5,101.5 93.5,100.5C 94.1667,100.5 94.8333,100.5 95.5,100.5C 95.9297,102.714 95.9297,105.047 95.5,107.5C 87.4195,104.918 79.0862,104.251 70.5,105.5C 70.7413,107.886 70.0746,109.886 68.5,111.5C 62.5467,109.406 58.8801,105.406 57.5,99.5C 57.369,98.7611 57.5357,98.0944 58,97.5C 58.1705,99.7148 58.8372,101.715 60,103.5C 61.7441,102.351 61.9108,101.017 60.5,99.5C 62.2507,97.2948 64.2507,97.2948 66.5,99.5C 67.269,102.624 68.9356,103.291 71.5,101.5 Z"/></g>
<g><path style="opacity:1" fill="#dae8aa" d="M 130.5,95.5 C 130.833,95.5 131.167,95.5 131.5,95.5C 131.5,95.8333 131.5,96.1667 131.5,96.5C 130.167,96.5 128.833,96.5 127.5,96.5C 127.5,97.8333 127.5,99.1667 127.5,100.5C 125.027,100.088 123.694,101.088 123.5,103.5C 124.463,105.298 123.796,106.632 121.5,107.5C 123.396,108.466 125.396,108.799 127.5,108.5C 127.5,109.5 127.5,110.5 127.5,111.5C 126.167,111.5 124.833,111.5 123.5,111.5C 123.5,113.167 123.5,114.833 123.5,116.5C 117.157,115.191 114.157,111.191 114.5,104.5C 114.5,101.167 116.167,99.5 119.5,99.5C 119.5,98.5 119.5,97.5 119.5,96.5C 123.135,95.8857 126.802,95.5524 130.5,95.5 Z"/></g>
<g><path style="opacity:1" fill="#397122" d="M 95.5,107.5 C 95.5,111.5 95.5,115.5 95.5,119.5C 93.5841,115.837 92.5841,111.837 92.5,107.5C 89.9621,107.507 87.4621,107.841 85,108.5C 81.9788,106.962 78.8122,106.462 75.5,107C 74.2527,108.952 72.9193,110.785 71.5,112.5C 70.8333,112.5 70.1667,112.5 69.5,112.5C 69.5,111.833 69.1667,111.5 68.5,111.5C 70.0746,109.886 70.7413,107.886 70.5,105.5C 79.0862,104.251 87.4195,104.918 95.5,107.5 Z"/></g>
<g><path style="opacity:1" fill="#e0f4b6" d="M 55.5,88.5 C 56.1143,92.1352 56.4476,95.8019 56.5,99.5C 55.9816,100.577 55.6483,101.744 55.5,103C 57.2183,105.562 58.2183,108.395 58.5,111.5C 56.5,111.5 54.5,111.5 52.5,111.5C 48.0523,110.065 46.3856,106.898 47.5,102C 47.8333,99.8333 48.1667,97.6667 48.5,95.5C 50.8545,93.8122 52.8545,91.8122 54.5,89.5C 54.5,88.8333 54.8333,88.5 55.5,88.5 Z"/></g>
<g><path style="opacity:1" fill="#ceea9a" d="M 149.5,95.5 C 146.752,95.4017 146.086,96.4017 147.5,98.5C 146.85,98.8039 146.183,99.1373 145.5,99.5C 144.943,97.6684 143.943,96.3351 142.5,95.5C 139.561,94.2146 136.895,92.3812 134.5,90C 130.356,89.3127 126.189,88.8127 122,88.5C 119.324,88.9868 116.824,88.9868 114.5,88.5C 112.79,89.8872 111.123,91.2206 109.5,92.5C 107.665,93.1223 106.498,94.4556 106,96.5C 105.076,104.291 105.576,111.958 107.5,119.5C 111.377,121.137 115.377,122.471 119.5,123.5C 119.5,124.5 119.5,125.5 119.5,126.5C 116.817,124.664 113.817,123.664 110.5,123.5C 109.378,122.053 107.878,121.053 106,120.5C 103.774,116.409 102.608,112.242 102.5,108C 103.3,103.92 103.8,99.7533 104,95.5C 106.049,91.7005 108.883,88.7005 112.5,86.5C 120.879,85.6859 128.879,85.6859 136.5,86.5C 139.006,88.5064 141.173,90.8397 143,93.5C 143.333,93.1667 143.667,92.8333 144,92.5C 145.876,93.6087 147.709,94.6087 149.5,95.5 Z"/></g>
<g><path style="opacity:1" fill="#e6f7b9" d="M 131.5,95.5 C 131.167,95.5 130.833,95.5 130.5,95.5C 130.918,94.7784 131.584,94.2784 132.5,94C 125.758,89.8262 119.925,90.6595 115,96.5C 114.014,95.8288 112.847,95.8288 111.5,96.5C 110.609,95.8902 109.609,95.5569 108.5,95.5C 108.328,94.5084 108.662,93.8417 109.5,93.5C 114.038,92.8192 118.538,91.8192 123,90.5C 129.313,90.724 135.146,92.3907 140.5,95.5C 140.33,96.8221 140.663,97.9887 141.5,99C 140.5,99.1667 139.5,99.3333 138.5,99.5C 135.895,98.5434 133.561,97.2101 131.5,95.5 Z"/></g>
<g><path style="opacity:1" fill="#e3f1b1" d="M 127.5,100.5 C 127.33,101.822 127.663,102.989 128.5,104C 130.886,103.649 133.219,103.815 135.5,104.5C 134.147,105.524 133.48,106.857 133.5,108.5C 135.827,108.247 137.827,108.914 139.5,110.5C 140.935,108.599 142.602,108.266 144.5,109.5C 145.466,107.604 145.799,105.604 145.5,103.5C 146.802,104.807 148.135,104.807 149.5,103.5C 151.451,104.774 152.785,106.44 153.5,108.5C 151.936,111.689 150.27,115.022 148.5,118.5C 147.675,119.386 146.675,119.719 145.5,119.5C 145.806,116.615 145.473,113.948 144.5,111.5C 143.238,114.071 141.905,114.071 140.5,111.5C 139.483,114.028 138.316,114.028 137,111.5C 135.374,111.854 133.541,111.854 131.5,111.5C 132.234,110.292 132.567,108.959 132.5,107.5C 130.833,107.5 129.167,107.5 127.5,107.5C 127.833,104.5 126.5,103.167 123.5,103.5C 123.694,101.088 125.027,100.088 127.5,100.5 Z"/></g>
<g><path style="opacity:1" fill="#255716" d="M 95.5,119.5 C 95.2155,121.415 95.5489,123.081 96.5,124.5C 95.9032,125.139 95.0698,125.472 94,125.5C 87.9068,123.748 81.7401,122.248 75.5,121C 79.5,120.667 83.5,120.333 87.5,120C 89.4812,119.395 89.8146,118.395 88.5,117C 85.5184,116.502 82.5184,116.335 79.5,116.5C 76.7458,115.359 74.0791,114.025 71.5,112.5C 72.9193,110.785 74.2527,108.952 75.5,107C 78.8122,106.462 81.9788,106.962 85,108.5C 87.4621,107.841 89.9621,107.507 92.5,107.5C 92.5841,111.837 93.5841,115.837 95.5,119.5 Z"/></g>
<g><path style="opacity:1" fill="#d0eda4" d="M 56.5,99.5 C 56.8333,99.5 57.1667,99.5 57.5,99.5C 58.8801,105.406 62.5467,109.406 68.5,111.5C 69.1667,111.5 69.5,111.833 69.5,112.5C 70.4832,114.291 71.8165,115.791 73.5,117C 68.1771,117.499 62.8437,117.666 57.5,117.5C 56.5084,117.672 55.8417,117.338 55.5,116.5C 55.6107,115.883 55.944,115.383 56.5,115C 54.4556,114.502 53.1223,113.335 52.5,111.5C 54.5,111.5 56.5,111.5 58.5,111.5C 58.2183,108.395 57.2183,105.562 55.5,103C 55.6483,101.744 55.9816,100.577 56.5,99.5 Z"/></g>
<g><path style="opacity:1" fill="#dcefaf" d="M 153.5,108.5 C 156.411,114.293 155.078,119.127 149.5,123C 147.527,123.495 145.527,123.662 143.5,123.5C 143.167,122.833 142.833,122.167 142.5,121.5C 143.222,121.082 143.722,120.416 144,119.5C 144.497,116.854 144.664,114.187 144.5,111.5C 145.473,113.948 145.806,116.615 145.5,119.5C 146.675,119.719 147.675,119.386 148.5,118.5C 150.27,115.022 151.936,111.689 153.5,108.5 Z"/></g>
<g><path style="opacity:0.118" fill="#d8e4cb" d="M 42.5,94.5 C 41.842,97.1555 41.1754,99.8222 40.5,102.5C 41.9266,107.772 42.9266,113.105 43.5,118.5C 40.4459,112.258 39.2792,105.591 40,98.5C 40.6082,96.9336 41.4415,95.6002 42.5,94.5 Z"/></g>
<g><path style="opacity:1" fill="#bcdd95" d="M 54.5,89.5 C 52.8545,91.8122 50.8545,93.8122 48.5,95.5C 48.1667,97.6667 47.8333,99.8333 47.5,102C 46.3856,106.898 48.0523,110.065 52.5,111.5C 53.1223,113.335 54.4556,114.502 56.5,115C 55.944,115.383 55.6107,115.883 55.5,116.5C 50.4801,115.508 46.8135,112.842 44.5,108.5C 41.5125,98.7054 44.8458,92.372 54.5,89.5 Z"/></g>
<g><path style="opacity:1" fill="#d8e6a5" d="M 131.5,111.5 C 133.541,111.854 135.374,111.854 137,111.5C 138.316,114.028 139.483,114.028 140.5,111.5C 141.905,114.071 143.238,114.071 144.5,111.5C 144.664,114.187 144.497,116.854 144,119.5C 143.722,120.416 143.222,121.082 142.5,121.5C 142.646,119.058 141.813,118.391 140,119.5C 139.692,118.692 139.192,118.025 138.5,117.5C 136.343,117.781 134.677,119.281 133.5,122C 129.255,123.248 126.588,121.748 125.5,117.5C 126.687,116.466 127.52,115.133 128,113.5C 128.816,112.177 129.983,111.511 131.5,111.5 Z"/></g>
<g><path style="opacity:1" fill="#e8f5b8" d="M 111.5,102.5 C 112.222,103.551 113.222,104.218 114.5,104.5C 114.157,111.191 117.157,115.191 123.5,116.5C 123.5,114.833 123.5,113.167 123.5,111.5C 124.833,111.5 126.167,111.5 127.5,111.5C 127.5,110.5 127.5,109.5 127.5,108.5C 125.396,108.799 123.396,108.466 121.5,107.5C 123.796,106.632 124.463,105.298 123.5,103.5C 126.5,103.167 127.833,104.5 127.5,107.5C 129.167,107.5 130.833,107.5 132.5,107.5C 132.567,108.959 132.234,110.292 131.5,111.5C 129.983,111.511 128.816,112.177 128,113.5C 127.52,115.133 126.687,116.466 125.5,117.5C 124.833,118.167 124.167,118.833 123.5,119.5C 122.883,119.611 122.383,119.944 122,120.5C 119.146,118.496 116.146,116.83 113,115.5C 111.633,111.3 111.133,106.967 111.5,102.5 Z"/></g>
<g><path style="opacity:1" fill="#80b051" d="M 109.5,82.5 C 109.842,81.6618 110.508,81.3284 111.5,81.5C 111.47,82.4972 111.97,83.1639 113,83.5C 117.253,81.5056 121.753,81.0056 126.5,82C 127.056,82.3826 127.389,82.8826 127.5,83.5C 105.243,83.0271 95.9097,93.6937 99.5,115.5C 98.5416,115.953 97.7083,116.619 97,117.5C 97.1739,110.535 97.5073,103.535 98,96.5C 100.168,95.1776 100.001,94.5109 97.5,94.5C 97.9321,93.2905 98.5987,92.2905 99.5,91.5C 99.4346,91.9382 99.6012,92.2716 100,92.5C 102.569,88.9275 105.736,86.0942 109.5,84C 110.738,83.31 110.738,82.81 109.5,82.5 Z"/></g>
<g><path style="opacity:1" fill="#d6eba6" d="M 149.5,100.5 C 150.609,101.29 151.942,101.79 153.5,102C 154.163,103.518 155.163,104.685 156.5,105.5C 159.519,117.457 155.186,124.791 143.5,127.5C 136.67,128.633 130.004,128.633 123.5,127.5C 130.042,127.791 136.709,127.457 143.5,126.5C 143.5,125.5 143.5,124.5 143.5,123.5C 145.527,123.662 147.527,123.495 149.5,123C 155.078,119.127 156.411,114.293 153.5,108.5C 152.785,106.44 151.451,104.774 149.5,103.5C 148.135,104.807 146.802,104.807 145.5,103.5C 145.5,102.5 145.5,101.5 145.5,100.5C 146.833,100.5 148.167,100.5 149.5,100.5 Z"/></g>
<g><path style="opacity:1" fill="#a0c875" d="M 69.5,112.5 C 70.1667,112.5 70.8333,112.5 71.5,112.5C 74.0791,114.025 76.7458,115.359 79.5,116.5C 79.5,117.5 79.5,118.5 79.5,119.5C 72.1422,119.582 64.8088,119.248 57.5,118.5C 57.5,118.167 57.5,117.833 57.5,117.5C 62.8437,117.666 68.1771,117.499 73.5,117C 71.8165,115.791 70.4832,114.291 69.5,112.5 Z"/></g>
<g><path style="opacity:1" fill="#e0f4b0" d="M 108.5,95.5 C 109.609,95.5569 110.609,95.8902 111.5,96.5C 111.5,98.5 111.5,100.5 111.5,102.5C 111.133,106.967 111.633,111.3 113,115.5C 116.146,116.83 119.146,118.496 122,120.5C 122.383,119.944 122.883,119.611 123.5,119.5C 123.439,121.592 122.439,123.092 120.5,124C 121.305,125.113 121.972,126.279 122.5,127.5C 121.5,127.5 120.5,127.5 119.5,127.5C 119.5,127.167 119.5,126.833 119.5,126.5C 119.5,125.5 119.5,124.5 119.5,123.5C 117.687,119.789 114.687,117.622 110.5,117C 106.588,114.063 106.588,111.23 110.5,108.5C 109.897,104.111 109.23,99.778 108.5,95.5 Z"/></g>
<g><path style="opacity:1" fill="#e3f2b3" d="M 125.5,117.5 C 126.588,121.748 129.255,123.248 133.5,122C 134.677,119.281 136.343,117.781 138.5,117.5C 139.192,118.025 139.692,118.692 140,119.5C 141.813,118.391 142.646,119.058 142.5,121.5C 142.833,122.167 143.167,122.833 143.5,123.5C 143.5,124.5 143.5,125.5 143.5,126.5C 136.709,127.457 130.042,127.791 123.5,127.5C 123.167,127.5 122.833,127.5 122.5,127.5C 121.972,126.279 121.305,125.113 120.5,124C 122.439,123.092 123.439,121.592 123.5,119.5C 124.167,118.833 124.833,118.167 125.5,117.5 Z"/></g>
<g><path style="opacity:1" fill="#578d30" d="M 97.5,94.5 C 100.001,94.5109 100.168,95.1776 98,96.5C 97.5073,103.535 97.1739,110.535 97,117.5C 97.7083,116.619 98.5416,115.953 99.5,115.5C 101.164,117.408 102.831,119.408 104.5,121.5C 104.5,122.833 104.5,124.167 104.5,125.5C 107.805,127.155 110.805,129.155 113.5,131.5C 110.692,130.897 108.026,129.897 105.5,128.5C 105.709,127.914 106.043,127.414 106.5,127C 105.167,126.667 103.833,126.333 102.5,126C 103.489,123.77 102.822,121.936 100.5,120.5C 98.753,120.027 97.0863,119.693 95.5,119.5C 95.5,115.5 95.5,111.5 95.5,107.5C 95.9297,105.047 95.9297,102.714 95.5,100.5C 95.9707,98.4214 96.6373,96.4214 97.5,94.5 Z"/></g>
<g><path style="opacity:1" fill="#598835" d="M 79.5,116.5 C 82.5184,116.335 85.5184,116.502 88.5,117C 89.8146,118.395 89.4812,119.395 87.5,120C 83.5,120.333 79.5,120.667 75.5,121C 81.7401,122.248 87.9068,123.748 94,125.5C 95.0698,125.472 95.9032,125.139 96.5,124.5C 96.7496,123.078 97.583,122.078 99,121.5C 99.8372,123.351 100.671,125.184 101.5,127C 99.8807,127.236 98.8807,128.069 98.5,129.5C 97.8423,128.602 97.1757,127.602 96.5,126.5C 95.7065,126.931 94.8732,127.265 94,127.5C 86.8153,124.328 79.3153,122.662 71.5,122.5C 67.03,121.514 62.3633,121.181 57.5,121.5C 57.5,120.5 57.5,119.5 57.5,118.5C 64.8088,119.248 72.1422,119.582 79.5,119.5C 79.5,118.5 79.5,117.5 79.5,116.5 Z"/></g>
<g><path style="opacity:1" fill="#6c9259" d="M 44.5,108.5 C 46.8135,112.842 50.4801,115.508 55.5,116.5C 55.8417,117.338 56.5084,117.672 57.5,117.5C 57.5,117.833 57.5,118.167 57.5,118.5C 57.5,119.5 57.5,120.5 57.5,121.5C 54.9333,121.855 52.4333,122.521 50,123.5C 49.0979,123.257 48.2646,122.923 47.5,122.5C 47.5,122.167 47.5,121.833 47.5,121.5C 47.6602,119.801 47.4935,118.134 47,116.5C 44.3785,114.153 43.5452,111.487 44.5,108.5 Z"/></g>
<g><path style="opacity:1" fill="#cae29a" d="M 156.5,105.5 C 158.258,107.141 159.758,109.141 161,111.5C 161.499,116.489 161.666,121.489 161.5,126.5C 161.5,127.167 161.5,127.833 161.5,128.5C 159.757,127.914 157.924,127.581 156,127.5C 147.176,128.265 138.342,129.265 129.5,130.5C 125.588,130.924 122.254,129.924 119.5,127.5C 120.5,127.5 121.5,127.5 122.5,127.5C 122.833,127.5 123.167,127.5 123.5,127.5C 130.004,128.633 136.67,128.633 143.5,127.5C 155.186,124.791 159.519,117.457 156.5,105.5 Z"/></g>
<g><path style="opacity:1" fill="#cbeaa4" d="M 71.5,122.5 C 73.2191,123.022 74.5525,124.022 75.5,125.5C 66.0834,125.208 56.7501,125.875 47.5,127.5C 47.5,127.167 47.5,126.833 47.5,126.5C 50.0225,125.149 52.6892,123.983 55.5,123C 60.8229,122.501 66.1563,122.334 71.5,122.5 Z"/></g>
<g><path style="opacity:1" fill="#b6d986" d="M 71.5,122.5 C 79.3153,122.662 86.8153,124.328 94,127.5C 94.8732,127.265 95.7065,126.931 96.5,126.5C 97.1757,127.602 97.8423,128.602 98.5,129.5C 99.8333,131.167 101.167,132.833 102.5,134.5C 102.152,138.557 101.486,142.557 100.5,146.5C 98.8007,146.527 97.4674,147.194 96.5,148.5C 97.3619,143.187 97.5285,137.854 97,132.5C 94.349,129.924 91.1823,128.591 87.5,128.5C 84.8333,128.167 82.1667,127.833 79.5,127.5C 78.1667,126.833 76.8333,126.167 75.5,125.5C 74.5525,124.022 73.2191,123.022 71.5,122.5 Z"/></g>
<g><path style="opacity:0.188" fill="#e3f1d9" d="M 43.5,119.5 C 45.0618,119.733 46.3951,120.4 47.5,121.5C 47.5,121.833 47.5,122.167 47.5,122.5C 44.8333,124.167 42.1667,125.833 39.5,127.5C 36.9785,128.011 34.6451,129.011 32.5,130.5C 35.3389,127.058 39.0055,124.558 43.5,123C 44.6843,121.855 44.6843,120.688 43.5,119.5 Z"/></g>
<g><path style="opacity:1" fill="#3d7221" d="M 95.5,119.5 C 97.0863,119.693 98.753,120.027 100.5,120.5C 102.822,121.936 103.489,123.77 102.5,126C 103.833,126.333 105.167,126.667 106.5,127C 106.043,127.414 105.709,127.914 105.5,128.5C 108.026,129.897 110.692,130.897 113.5,131.5C 113.5,131.833 113.5,132.167 113.5,132.5C 115.041,133.667 116.375,135 117.5,136.5C 115.365,138.369 112.698,139.036 109.5,138.5C 107.65,136.428 105.317,135.095 102.5,134.5C 101.167,132.833 99.8333,131.167 98.5,129.5C 98.8807,128.069 99.8807,127.236 101.5,127C 100.671,125.184 99.8372,123.351 99,121.5C 97.583,122.078 96.7496,123.078 96.5,124.5C 95.5489,123.081 95.2155,121.415 95.5,119.5 Z"/></g>
<g><path style="opacity:1" fill="#ebf8c8" d="M 55.5,128.5 C 57.8568,128.337 60.1902,128.503 62.5,129C 60.5,129.667 59.1667,131 58.5,133C 55.7983,133.607 53.1316,133.44 50.5,132.5C 48.9623,132.453 47.9623,133.12 47.5,134.5C 45.4078,134.561 43.9078,135.561 43,137.5C 42.5078,138.549 42.6744,139.549 43.5,140.5C 42.8333,141.167 42.1667,141.833 41.5,142.5C 43.1261,145.274 45.1261,147.608 47.5,149.5C 46.5,149.5 45.5,149.5 44.5,149.5C 42.4704,147.463 40.8037,145.13 39.5,142.5C 40.5565,139.811 41.8899,137.311 43.5,135C 43.0426,134.586 42.7093,134.086 42.5,133.5C 45.5634,128.909 49.8967,127.242 55.5,128.5 Z"/></g>
<g><path style="opacity:1" fill="#e9f6c1" d="M 79.5,127.5 C 79.5,127.833 79.5,128.167 79.5,128.5C 79.5824,130.252 78.7491,131.252 77,131.5C 73.0345,129.553 68.8678,129.053 64.5,130C 63.5939,131.699 63.2606,133.533 63.5,135.5C 69.6486,137.213 75.3153,136.213 80.5,132.5C 81.1835,132.863 81.8501,133.196 82.5,133.5C 82.5,134.167 82.5,134.833 82.5,135.5C 81.495,137.743 79.995,138.076 78,136.5C 76.2158,137.309 74.3825,137.976 72.5,138.5C 69.5212,137.672 66.5212,137.005 63.5,136.5C 63.5,138.833 63.5,141.167 63.5,143.5C 66.5716,143.813 69.405,143.146 72,141.5C 73.3026,141.978 74.4693,142.645 75.5,143.5C 75.4431,144.609 75.1098,145.609 74.5,146.5C 70.5139,148.025 66.3473,149.025 62,149.5C 60.9541,147.805 59.7874,147.472 58.5,148.5C 58.2503,146.326 57.2503,144.659 55.5,143.5C 55.5,142.5 55.5,141.5 55.5,140.5C 56.8333,140.5 58.1667,140.5 59.5,140.5C 59.5,138.833 59.5,137.167 59.5,135.5C 55.5,135.5 51.5,135.5 47.5,135.5C 47.5,135.167 47.5,134.833 47.5,134.5C 47.9623,133.12 48.9623,132.453 50.5,132.5C 53.1316,133.44 55.7983,133.607 58.5,133C 59.1667,131 60.5,129.667 62.5,129C 60.1902,128.503 57.8568,128.337 55.5,128.5C 58.9835,127.598 62.6501,126.932 66.5,126.5C 70.7985,127.297 75.1318,127.63 79.5,127.5 Z"/></g>
<g><path style="opacity:1" fill="#a8c288" d="M 57.5,121.5 C 62.3633,121.181 67.03,121.514 71.5,122.5C 66.1563,122.334 60.8229,122.501 55.5,123C 52.6892,123.983 50.0225,125.149 47.5,126.5C 44.5902,127.425 41.9236,128.759 39.5,130.5C 37.8506,131.473 36.184,132.473 34.5,133.5C 35.4499,130.885 37.1165,128.885 39.5,127.5C 42.1667,125.833 44.8333,124.167 47.5,122.5C 48.2646,122.923 49.0979,123.257 50,123.5C 52.4333,122.521 54.9333,121.855 57.5,121.5 Z"/></g>
<g><path style="opacity:0.651" fill="#7e9b5d" d="M 162.5,107.5 C 164,108.588 165.333,109.921 166.5,111.5C 167.386,110.675 167.719,109.675 167.5,108.5C 170.806,121.246 166.806,131.246 155.5,138.5C 155.631,137.624 155.298,136.957 154.5,136.5C 153.482,137.193 152.482,137.859 151.5,138.5C 151.5,137.833 151.5,137.167 151.5,136.5C 155.603,134.784 158.936,132.117 161.5,128.5C 161.5,127.833 161.5,127.167 161.5,126.5C 162.434,125.432 162.768,124.099 162.5,122.5C 163.5,122.5 164.5,122.5 165.5,122.5C 165.665,119.15 165.498,115.817 165,112.5C 163.108,111.383 162.275,109.716 162.5,107.5 Z"/></g>
<g><path style="opacity:1" fill="#e3f5bd" d="M 75.5,125.5 C 76.8333,126.167 78.1667,126.833 79.5,127.5C 75.1318,127.63 70.7985,127.297 66.5,126.5C 62.6501,126.932 58.9835,127.598 55.5,128.5C 49.8967,127.242 45.5634,128.909 42.5,133.5C 42.7093,134.086 43.0426,134.586 43.5,135C 41.8899,137.311 40.5565,139.811 39.5,142.5C 40.8037,145.13 42.4704,147.463 44.5,149.5C 40.8246,148.336 38.4912,145.836 37.5,142C 39.6965,139.39 40.3632,136.557 39.5,133.5C 41.921,131.066 44.5877,129.066 47.5,127.5C 56.7501,125.875 66.0834,125.208 75.5,125.5 Z"/></g>
<g><path style="opacity:1" fill="#a7d074" d="M 104.5,121.5 C 107.414,124.792 111.08,126.792 115.5,127.5C 125.488,132.639 136.155,134.639 147.5,133.5C 147.5,134.5 147.5,135.5 147.5,136.5C 139.565,137.7 131.899,137.7 124.5,136.5C 120.929,134.88 117.262,133.547 113.5,132.5C 113.5,132.167 113.5,131.833 113.5,131.5C 110.805,129.155 107.805,127.155 104.5,125.5C 104.5,124.167 104.5,122.833 104.5,121.5 Z"/></g>
<g><path style="opacity:1" fill="#bcdb89" d="M 110.5,123.5 C 113.817,123.664 116.817,124.664 119.5,126.5C 119.5,126.833 119.5,127.167 119.5,127.5C 122.254,129.924 125.588,130.924 129.5,130.5C 138.342,129.265 147.176,128.265 156,127.5C 157.924,127.581 159.757,127.914 161.5,128.5C 158.936,132.117 155.603,134.784 151.5,136.5C 150.167,136.5 148.833,136.5 147.5,136.5C 147.5,135.5 147.5,134.5 147.5,133.5C 136.155,134.639 125.488,132.639 115.5,127.5C 114.328,125.461 112.662,124.128 110.5,123.5 Z"/></g>
<g><path style="opacity:0.227" fill="#e5eed8" d="M 32.5,130.5 C 31.6597,132.853 30.3264,134.853 28.5,136.5C 28.8449,133.802 30.1782,131.802 32.5,130.5 Z"/></g>
<g><path style="opacity:1" fill="#cce9a0" d="M 87.5,128.5 C 91.1823,128.591 94.349,129.924 97,132.5C 97.5285,137.854 97.3619,143.187 96.5,148.5C 96.1667,148.5 95.8333,148.5 95.5,148.5C 90.4448,149.378 85.4448,150.378 80.5,151.5C 80.5,150.5 80.5,149.5 80.5,148.5C 83.5701,148.632 86.5701,148.299 89.5,147.5C 91.4352,146.85 93.4352,146.517 95.5,146.5C 95.5,142.167 95.5,137.833 95.5,133.5C 92.3243,132.66 89.6576,130.993 87.5,128.5 Z"/></g>
<g><path style="opacity:1" fill="#e8f9c7" d="M 82.5,133.5 C 84.8211,133.229 86.8211,133.896 88.5,135.5C 88.7472,138.344 89.0805,141.177 89.5,144C 86.0209,144.866 82.6876,146.033 79.5,147.5C 78.0813,146.549 76.4147,146.216 74.5,146.5C 75.1098,145.609 75.4431,144.609 75.5,143.5C 77.0931,142.652 78.2597,141.319 79,139.5C 86.1553,143.908 87.3219,142.575 82.5,135.5C 82.5,134.833 82.5,134.167 82.5,133.5 Z"/></g>
<g><path style="opacity:1" fill="#e4f6bc" d="M 79.5,128.5 C 82.2777,129.968 85.2777,130.801 88.5,131C 91.5434,133.843 92.2101,137.176 90.5,141C 90.8443,142.365 91.5109,143.532 92.5,144.5C 91.2299,145.288 90.2299,146.288 89.5,147.5C 86.5701,148.299 83.5701,148.632 80.5,148.5C 80.5,149.5 80.5,150.5 80.5,151.5C 78.8863,153.075 76.8863,153.741 74.5,153.5C 68.9632,153.288 63.4632,153.622 58,154.5C 54.9735,154.088 52.1401,153.421 49.5,152.5C 56.8409,152.666 64.1742,152.5 71.5,152C 74.503,150.79 77.1696,149.29 79.5,147.5C 82.6876,146.033 86.0209,144.866 89.5,144C 89.0805,141.177 88.7472,138.344 88.5,135.5C 86.8211,133.896 84.8211,133.229 82.5,133.5C 81.8501,133.196 81.1835,132.863 80.5,132.5C 75.3153,136.213 69.6486,137.213 63.5,135.5C 63.2606,133.533 63.5939,131.699 64.5,130C 68.8678,129.053 73.0345,129.553 77,131.5C 78.7491,131.252 79.5824,130.252 79.5,128.5 Z"/></g>
<g><path style="opacity:1" fill="#dbf1b1" d="M 79.5,128.5 C 79.5,128.167 79.5,127.833 79.5,127.5C 82.1667,127.833 84.8333,128.167 87.5,128.5C 89.6576,130.993 92.3243,132.66 95.5,133.5C 95.5,137.833 95.5,142.167 95.5,146.5C 93.4352,146.517 91.4352,146.85 89.5,147.5C 90.2299,146.288 91.2299,145.288 92.5,144.5C 91.5109,143.532 90.8443,142.365 90.5,141C 92.2101,137.176 91.5434,133.843 88.5,131C 85.2777,130.801 82.2777,129.968 79.5,128.5 Z"/></g>
<g><path style="opacity:1" fill="#899d72" d="M 39.5,127.5 C 37.1165,128.885 35.4499,130.885 34.5,133.5C 32.5829,134.116 31.4162,135.45 31,137.5C 30.3658,140.555 30.5325,143.555 31.5,146.5C 31.5,146.833 31.5,147.167 31.5,147.5C 30.8333,147.5 30.1667,147.5 29.5,147.5C 28.9492,144.193 28.6159,140.86 28.5,137.5C 28.5,137.167 28.5,136.833 28.5,136.5C 30.3264,134.853 31.6597,132.853 32.5,130.5C 34.6451,129.011 36.9785,128.011 39.5,127.5 Z"/></g>
<g><path style="opacity:1" fill="#c4e09e" d="M 39.5,130.5 C 36.3905,136.476 35.3905,142.81 36.5,149.5C 34.5887,148.925 32.922,147.925 31.5,146.5C 30.5325,143.555 30.3658,140.555 31,137.5C 31.4162,135.45 32.5829,134.116 34.5,133.5C 36.184,132.473 37.8506,131.473 39.5,130.5 Z"/></g>
<g><path style="opacity:1" fill="#eeface" d="M 47.5,134.5 C 47.5,134.833 47.5,135.167 47.5,135.5C 47.5,138.167 47.5,140.833 47.5,143.5C 50.1667,143.5 52.8333,143.5 55.5,143.5C 57.2503,144.659 58.2503,146.326 58.5,148.5C 58.5,149.5 58.5,150.5 58.5,151.5C 54.5559,151.887 50.8892,151.22 47.5,149.5C 45.1261,147.608 43.1261,145.274 41.5,142.5C 42.1667,141.833 42.8333,141.167 43.5,140.5C 42.6744,139.549 42.5078,138.549 43,137.5C 43.9078,135.561 45.4078,134.561 47.5,134.5 Z"/></g>
<g><path style="opacity:1" fill="#edfac9" d="M 82.5,135.5 C 87.3219,142.575 86.1553,143.908 79,139.5C 78.2597,141.319 77.0931,142.652 75.5,143.5C 74.4693,142.645 73.3026,141.978 72,141.5C 69.405,143.146 66.5716,143.813 63.5,143.5C 63.5,141.167 63.5,138.833 63.5,136.5C 66.5212,137.005 69.5212,137.672 72.5,138.5C 74.3825,137.976 76.2158,137.309 78,136.5C 79.995,138.076 81.495,137.743 82.5,135.5 Z"/></g>
<g><path style="opacity:1" fill="#5f8c3d" d="M 113.5,132.5 C 117.262,133.547 120.929,134.88 124.5,136.5C 131.899,137.7 139.565,137.7 147.5,136.5C 148.833,136.5 150.167,136.5 151.5,136.5C 151.5,137.167 151.5,137.833 151.5,138.5C 146.057,141.921 140.057,143.255 133.5,142.5C 128.306,140.322 122.973,138.322 117.5,136.5C 116.375,135 115.041,133.667 113.5,132.5 Z"/></g>
<g><path style="opacity:1" fill="#e7f4bf" d="M 47.5,135.5 C 51.5,135.5 55.5,135.5 59.5,135.5C 59.5,137.167 59.5,138.833 59.5,140.5C 58.1667,140.5 56.8333,140.5 55.5,140.5C 55.5,141.5 55.5,142.5 55.5,143.5C 52.8333,143.5 50.1667,143.5 47.5,143.5C 47.5,140.833 47.5,138.167 47.5,135.5 Z"/></g>
<g><path style="opacity:0.988" fill="#6b8f58" d="M 117.5,136.5 C 122.973,138.322 128.306,140.322 133.5,142.5C 132.005,142.989 130.671,143.655 129.5,144.5C 122.093,144.652 115.426,142.652 109.5,138.5C 112.698,139.036 115.365,138.369 117.5,136.5 Z"/></g>
<g><path style="opacity:0.333" fill="#4e6b3f" d="M 155.5,138.5 C 147.63,144.206 138.964,146.206 129.5,144.5C 130.671,143.655 132.005,142.989 133.5,142.5C 140.057,143.255 146.057,141.921 151.5,138.5C 152.482,137.859 153.482,137.193 154.5,136.5C 155.298,136.957 155.631,137.624 155.5,138.5 Z"/></g>
<g><path style="opacity:1" fill="#669143" d="M 102.5,134.5 C 105.317,135.095 107.65,136.428 109.5,138.5C 108.351,138.791 107.684,139.624 107.5,141C 108.226,142.735 108.226,144.235 107.5,145.5C 107.5,144.833 107.167,144.5 106.5,144.5C 106.44,143.957 106.107,143.624 105.5,143.5C 103.006,146.476 100.506,149.476 98,152.5C 94.5317,152.051 91.0317,152.551 87.5,154C 86.8016,154.971 86.8016,156.137 87.5,157.5C 87.2528,158.713 86.5862,159.38 85.5,159.5C 84.032,158.221 83.3653,156.554 83.5,154.5C 82.5,154.5 81.5,154.5 80.5,154.5C 85.4007,152.253 90.4007,150.253 95.5,148.5C 95.8333,148.5 96.1667,148.5 96.5,148.5C 97.4674,147.194 98.8007,146.527 100.5,146.5C 101.486,142.557 102.152,138.557 102.5,134.5 Z"/></g>
<g><path style="opacity:0.345" fill="#e7eedb" d="M 28.5,137.5 C 28.6159,140.86 28.9492,144.193 29.5,147.5C 29.5,150.833 29.5,154.167 29.5,157.5C 28.0605,153.594 27.3938,149.427 27.5,145C 27.5029,142.31 27.8362,139.81 28.5,137.5 Z"/></g>
<g><path style="opacity:1" fill="#d8f0b1" d="M 47.5,126.5 C 47.5,126.833 47.5,127.167 47.5,127.5C 44.5877,129.066 41.921,131.066 39.5,133.5C 40.3632,136.557 39.6965,139.39 37.5,142C 38.4912,145.836 40.8246,148.336 44.5,149.5C 45.5,149.5 46.5,149.5 47.5,149.5C 47.427,151.027 48.0937,152.027 49.5,152.5C 52.1401,153.421 54.9735,154.088 58,154.5C 63.4632,153.622 68.9632,153.288 74.5,153.5C 63.6894,155.533 52.6894,155.866 41.5,154.5C 39.2103,153.51 37.5437,151.843 36.5,149.5C 35.3905,142.81 36.3905,136.476 39.5,130.5C 41.9236,128.759 44.5902,127.425 47.5,126.5 Z"/></g>
<g><path style="opacity:1" fill="#effacb" d="M 74.5,146.5 C 76.4147,146.216 78.0813,146.549 79.5,147.5C 77.1696,149.29 74.503,150.79 71.5,152C 64.1742,152.5 56.8409,152.666 49.5,152.5C 48.0937,152.027 47.427,151.027 47.5,149.5C 50.8892,151.22 54.5559,151.887 58.5,151.5C 58.5,150.5 58.5,149.5 58.5,148.5C 59.7874,147.472 60.9541,147.805 62,149.5C 66.3473,149.025 70.5139,148.025 74.5,146.5 Z"/></g>
<g><path style="opacity:0.29" fill="#b6beae" d="M 106.5,144.5 C 107.167,144.5 107.5,144.833 107.5,145.5C 107.665,148.518 107.498,151.518 107,154.5C 106.8,156.32 105.966,157.653 104.5,158.5C 104.298,156.05 104.631,153.717 105.5,151.5C 105.993,149.194 106.326,146.861 106.5,144.5 Z"/></g>
<g><path style="opacity:1" fill="#b8dd95" d="M 95.5,148.5 C 90.4007,150.253 85.4007,152.253 80.5,154.5C 79.0697,155.537 77.403,156.204 75.5,156.5C 65.5161,157.585 55.5161,157.585 45.5,156.5C 44.1667,155.833 42.8333,155.167 41.5,154.5C 52.6894,155.866 63.6894,155.533 74.5,153.5C 76.8863,153.741 78.8863,153.075 80.5,151.5C 85.4448,150.378 90.4448,149.378 95.5,148.5 Z"/></g>
<g><path style="opacity:1" fill="#769d5c" d="M 31.5,146.5 C 32.922,147.925 34.5887,148.925 36.5,149.5C 37.5437,151.843 39.2103,153.51 41.5,154.5C 42.8333,155.167 44.1667,155.833 45.5,156.5C 44.7611,156.369 44.0944,156.536 43.5,157C 44.5981,157.77 44.5981,158.603 43.5,159.5C 45.8739,165.244 44.5406,165.911 39.5,161.5C 38.8195,159.111 37.9862,156.778 37,154.5C 35.9887,153.663 34.8221,153.33 33.5,153.5C 33.6716,152.508 33.3382,151.842 32.5,151.5C 31.7659,150.292 31.4326,148.959 31.5,147.5C 31.5,147.167 31.5,146.833 31.5,146.5 Z"/></g>
<g><path style="opacity:1" fill="#667c5e" d="M 105.5,151.5 C 104.631,153.717 104.298,156.05 104.5,158.5C 102.974,161.176 100.64,163.009 97.5,164C 93.4695,165.173 89.4695,166.34 85.5,167.5C 85.5,166.5 85.5,165.5 85.5,164.5C 88.1873,164.664 90.854,164.497 93.5,164C 94.3805,163.292 95.0472,162.458 95.5,161.5C 97.3976,159.617 99.2309,157.617 101,155.5C 101.333,155.833 101.667,156.167 102,156.5C 102.14,153.957 102.806,151.623 104,149.5C 104.278,150.416 104.778,151.082 105.5,151.5 Z"/></g>
<g><path style="opacity:1" fill="#acbfa4" d="M 29.5,147.5 C 30.1667,147.5 30.8333,147.5 31.5,147.5C 31.4326,148.959 31.7659,150.292 32.5,151.5C 33.1667,155.833 33.8333,160.167 34.5,164.5C 32.1,162.704 30.4333,160.37 29.5,157.5C 29.5,154.167 29.5,150.833 29.5,147.5 Z"/></g>
<g><path style="opacity:1" fill="#598c3d" d="M 45.5,156.5 C 55.5161,157.585 65.5161,157.585 75.5,156.5C 75.67,157.822 75.3366,158.989 74.5,160C 71.589,160.33 69.089,161.497 67,163.5C 65.9887,162.663 64.8221,162.33 63.5,162.5C 63.5,161.167 63.5,159.833 63.5,158.5C 58.4635,158.413 53.4635,158.746 48.5,159.5C 46.8333,159.5 45.1667,159.5 43.5,159.5C 44.5981,158.603 44.5981,157.77 43.5,157C 44.0944,156.536 44.7611,156.369 45.5,156.5 Z"/></g>
<g><path style="opacity:1" fill="#527d42" d="M 106.5,144.5 C 106.326,146.861 105.993,149.194 105.5,151.5C 104.778,151.082 104.278,150.416 104,149.5C 102.806,151.623 102.14,153.957 102,156.5C 101.667,156.167 101.333,155.833 101,155.5C 99.2309,157.617 97.3976,159.617 95.5,161.5C 94.8333,161.5 94.1667,161.5 93.5,161.5C 90.3095,161.441 87.1429,161.107 84,160.5C 79.8838,161.69 75.7172,162.69 71.5,163.5C 75.5106,160.656 80.1773,159.323 85.5,159.5C 86.5862,159.38 87.2528,158.713 87.5,157.5C 86.8016,156.137 86.8016,154.971 87.5,154C 91.0317,152.551 94.5317,152.051 98,152.5C 100.506,149.476 103.006,146.476 105.5,143.5C 106.107,143.624 106.44,143.957 106.5,144.5 Z"/></g>
<g><path style="opacity:1" fill="#4c813b" d="M 80.5,154.5 C 81.5,154.5 82.5,154.5 83.5,154.5C 83.3653,156.554 84.032,158.221 85.5,159.5C 80.1773,159.323 75.5106,160.656 71.5,163.5C 69.8297,163.751 68.3297,164.418 67,165.5C 64.8316,163.545 62.4983,162.879 60,163.5C 56.0018,162.383 52.1684,161.05 48.5,159.5C 53.4635,158.746 58.4635,158.413 63.5,158.5C 63.5,159.833 63.5,161.167 63.5,162.5C 64.8221,162.33 65.9887,162.663 67,163.5C 69.089,161.497 71.589,160.33 74.5,160C 75.3366,158.989 75.67,157.822 75.5,156.5C 77.403,156.204 79.0697,155.537 80.5,154.5 Z"/></g>
<g><path style="opacity:1" fill="#538147" d="M 33.5,153.5 C 34.8221,153.33 35.9887,153.663 37,154.5C 37.9862,156.778 38.8195,159.111 39.5,161.5C 44.5406,165.911 45.8739,165.244 43.5,159.5C 45.1667,159.5 46.8333,159.5 48.5,159.5C 52.1684,161.05 56.0018,162.383 60,163.5C 62.4983,162.879 64.8316,163.545 67,165.5C 68.3297,164.418 69.8297,163.751 71.5,163.5C 71.5417,165.849 70.3751,167.182 68,167.5C 64.3168,165.299 60.6502,163.966 57,163.5C 56.044,164.894 54.7106,165.561 53,165.5C 50.863,164.923 48.6963,164.59 46.5,164.5C 46.5,165.5 46.5,166.5 46.5,167.5C 44.8002,167.374 43.3002,166.707 42,165.5C 41.2352,165.57 40.7352,165.903 40.5,166.5C 38.393,162.301 36.0597,157.968 33.5,153.5 Z"/></g>
<g><path style="opacity:1" fill="#4c7541" d="M 93.5,161.5 C 86.1251,163.121 78.7918,165.287 71.5,168C 62.8491,169.679 54.1824,169.846 45.5,168.5C 43.6776,168.169 42.0109,167.502 40.5,166.5C 40.7352,165.903 41.2352,165.57 42,165.5C 43.3002,166.707 44.8002,167.374 46.5,167.5C 46.5,166.5 46.5,165.5 46.5,164.5C 48.6963,164.59 50.863,164.923 53,165.5C 54.7106,165.561 56.044,164.894 57,163.5C 60.6502,163.966 64.3168,165.299 68,167.5C 70.3751,167.182 71.5417,165.849 71.5,163.5C 75.7172,162.69 79.8838,161.69 84,160.5C 87.1429,161.107 90.3095,161.441 93.5,161.5 Z"/></g>
<g><path style="opacity:0.722" fill="#7d9571" d="M 32.5,151.5 C 33.3382,151.842 33.6716,152.508 33.5,153.5C 36.0597,157.968 38.393,162.301 40.5,166.5C 42.0109,167.502 43.6776,168.169 45.5,168.5C 46.1667,169.167 46.8333,169.833 47.5,170.5C 42.4776,169.82 38.1443,167.82 34.5,164.5C 33.8333,160.167 33.1667,155.833 32.5,151.5 Z"/></g>
<g><path style="opacity:0.912" fill="#506b45" d="M 93.5,161.5 C 94.1667,161.5 94.8333,161.5 95.5,161.5C 95.0472,162.458 94.3805,163.292 93.5,164C 90.854,164.497 88.1873,164.664 85.5,164.5C 85.5,165.5 85.5,166.5 85.5,167.5C 83.3667,169.161 80.8667,170.161 78,170.5C 67.7658,172.928 57.5991,172.928 47.5,170.5C 46.8333,169.833 46.1667,169.167 45.5,168.5C 54.1824,169.846 62.8491,169.679 71.5,168C 78.7918,165.287 86.1251,163.121 93.5,161.5 Z"/></g>
</svg>
